<?xml version="1.0" encoding="UTF-8"?>
<!DOCTYPE svg PUBLIC "-//W3C//DTD SVG 1.1//EN" "http://www.w3.org/Graphics/SVG/1.1/DTD/svg11.dtd">
<svg xmlns="http://www.w3.org/2000/svg" version="1.1" width="358px" height="408px" style="shape-rendering:geometricPrecision; text-rendering:geometricPrecision; image-rendering:optimizeQuality; fill-rule:evenodd; clip-rule:evenodd" xmlns:xlink="http://www.w3.org/1999/xlink">
<g><path style="opacity:0.424" fill="#306286" d="M 220.5,14.5 C 215.787,10.0407 210.121,8.37405 203.5,9.5C 207.259,7.05449 211.259,6.88782 215.5,9C 218.079,10.0757 219.746,11.909 220.5,14.5 Z"/></g>
<g><path style="opacity:0.373" fill="#2c5b85" d="M 169.5,14.5 C 165.043,9.77346 159.71,8.44012 153.5,10.5C 150.907,11.7536 148.573,13.4202 146.5,15.5C 151.25,7.22551 157.916,5.39217 166.5,10C 168.141,11.129 169.141,12.629 169.5,14.5 Z"/></g>
<g><path style="opacity:1" fill="#54b9fa" d="M 220.5,16.5 C 221.034,28.0793 222.034,39.7459 223.5,51.5C 221.983,51.5106 220.816,52.1772 220,53.5C 219.667,52.5 219.333,51.5 219,50.5C 219.361,55.3035 217.194,57.6368 212.5,57.5C 213.001,54.8221 214.501,52.8221 217,51.5C 218.305,47.1757 216.805,44.8424 212.5,44.5C 212.709,46.7144 211.876,48.381 210,49.5C 208.12,48.0977 206.453,46.4311 205,44.5C 203.941,44.6301 203.108,45.1301 202.5,46C 207.185,49.4382 207.351,53.2715 203,57.5C 202.383,56.5509 202.549,55.7175 203.5,55C 201.755,51.4342 200.589,47.6008 200,43.5C 199.847,37.937 199.68,32.437 199.5,27C 199.833,26.1667 200.167,25.3333 200.5,24.5C 202.258,23.8721 203.758,22.8721 205,21.5C 204.524,16.778 206.357,13.4446 210.5,11.5C 214.285,12.4182 217.618,14.0849 220.5,16.5 Z"/></g>
<g><path style="opacity:1" fill="#53b0fb" d="M 170.5,31.5 C 170.764,38.8896 170.43,46.2229 169.5,53.5C 169.277,57.1621 168.277,60.4954 166.5,63.5C 164.793,65.6997 162.627,67.3664 160,68.5C 158.632,67.2974 157.132,66.2974 155.5,65.5C 152.667,66.9332 149.667,67.5999 146.5,67.5C 145.36,62.3481 144.194,62.3481 143,67.5C 142.535,66.0692 141.701,64.9025 140.5,64C 140.973,61.2224 141.973,58.3891 143.5,55.5C 144.265,52.9039 144.599,50.2372 144.5,47.5C 147.067,42.6554 148.067,37.3221 147.5,31.5C 148.268,30.7375 148.768,29.7375 149,28.5C 149.333,29.5 149.667,30.5 150,31.5C 151,28.8333 152,26.1667 153,23.5C 153.373,25.6982 153.873,27.8649 154.5,30C 154.241,31.2613 153.574,32.2613 152.5,33C 153.935,32.6888 155.268,32.8555 156.5,33.5C 158.907,41.5735 159.907,41.2402 159.5,32.5C 160.833,32.5 162.167,32.5 163.5,32.5C 163.962,37.1624 164.462,41.8291 165,46.5C 164.737,40.6418 166.571,35.6418 170.5,31.5 Z"/></g>
<g><path style="opacity:1" fill="#52adfa" d="M 169.5,14.5 C 170.292,20.1302 170.625,25.7969 170.5,31.5C 166.571,35.6418 164.737,40.6418 165,46.5C 164.462,41.8291 163.962,37.1624 163.5,32.5C 162.167,32.5 160.833,32.5 159.5,32.5C 159.907,41.2402 158.907,41.5735 156.5,33.5C 155.268,32.8555 153.935,32.6888 152.5,33C 153.574,32.2613 154.241,31.2613 154.5,30C 153.873,27.8649 153.373,25.6982 153,23.5C 152,26.1667 151,28.8333 150,31.5C 149.667,30.5 149.333,29.5 149,28.5C 148.768,29.7375 148.268,30.7375 147.5,31.5C 147.334,26.4889 147.501,21.4889 148,16.5C 150.04,14.6298 151.873,12.6298 153.5,10.5C 159.71,8.44012 165.043,9.77346 169.5,14.5 Z"/></g>
<g><path style="opacity:0.808" fill="#4787c0" d="M 169.5,14.5 C 170.793,15.842 171.626,17.5087 172,19.5C 172.788,30.5463 172.622,41.5463 171.5,52.5C 170.833,52.8333 170.167,53.1667 169.5,53.5C 170.43,46.2229 170.764,38.8896 170.5,31.5C 170.625,25.7969 170.292,20.1302 169.5,14.5 Z"/></g>
<g><path style="opacity:0.218" fill="#295581" d="M 146.5,15.5 C 145.773,26.1574 145.106,36.824 144.5,47.5C 144.167,47.5 143.833,47.5 143.5,47.5C 144.121,37.8459 144.621,28.1792 145,18.5C 145.232,17.2625 145.732,16.2625 146.5,15.5 Z"/></g>
<g><path style="opacity:0.351" fill="#35668b" d="M 220.5,14.5 C 221.117,14.6107 221.617,14.944 222,15.5C 222.333,17.5 222.667,19.5 223,21.5C 223.118,30.5601 223.785,39.5601 225,48.5C 226.059,51.6179 227.392,54.6179 229,57.5C 232.038,60.3694 234.871,63.3694 237.5,66.5C 234.215,65.4001 231.215,63.7334 228.5,61.5C 227.547,58.57 225.88,56.2367 223.5,54.5C 223.5,53.5 223.5,52.5 223.5,51.5C 222.034,39.7459 221.034,28.0793 220.5,16.5C 220.5,15.8333 220.5,15.1667 220.5,14.5 Z"/></g>
<g><path style="opacity:1" fill="#4a8dc9" d="M 153.5,10.5 C 151.873,12.6298 150.04,14.6298 148,16.5C 147.501,21.4889 147.334,26.4889 147.5,31.5C 148.067,37.3221 147.067,42.6554 144.5,47.5C 145.106,36.824 145.773,26.1574 146.5,15.5C 148.573,13.4202 150.907,11.7536 153.5,10.5 Z"/></g>
<g><path style="opacity:0.463" fill="#3e79a2" d="M 196.5,16.5 C 195.979,31.5893 196.646,46.5893 198.5,61.5C 196.203,57.2372 195.036,52.5705 195,47.5C 194.333,38.5 194.333,29.5 195,20.5C 195.21,18.9419 195.71,17.6085 196.5,16.5 Z"/></g>
<g><path style="opacity:1" fill="#58bdfa" d="M 203.5,9.5 C 210.121,8.37405 215.787,10.0407 220.5,14.5C 220.5,15.1667 220.5,15.8333 220.5,16.5C 217.618,14.0849 214.285,12.4182 210.5,11.5C 206.357,13.4446 204.524,16.778 205,21.5C 203.758,22.8721 202.258,23.8721 200.5,24.5C 200.167,25.3333 199.833,26.1667 199.5,27C 199.68,32.437 199.847,37.937 200,43.5C 200.589,47.6008 201.755,51.4342 203.5,55C 202.549,55.7175 202.383,56.5509 203,57.5C 207.351,53.2715 207.185,49.4382 202.5,46C 203.108,45.1301 203.941,44.6301 205,44.5C 206.453,46.4311 208.12,48.0977 210,49.5C 211.876,48.381 212.709,46.7144 212.5,44.5C 216.805,44.8424 218.305,47.1757 217,51.5C 214.501,52.8221 213.001,54.8221 212.5,57.5C 217.194,57.6368 219.361,55.3035 219,50.5C 219.333,51.5 219.667,52.5 220,53.5C 220.816,52.1772 221.983,51.5106 223.5,51.5C 223.5,52.5 223.5,53.5 223.5,54.5C 224.248,56.5841 224.248,58.5841 223.5,60.5C 224.711,61.8745 225.711,63.3745 226.5,65C 225.308,67.0548 225.308,69.0548 226.5,71C 225.584,71.3742 224.75,71.8742 224,72.5C 223.088,69.0033 221.422,66.0033 219,63.5C 215.344,68.1174 216.51,70.784 222.5,71.5C 222.799,74.6421 224.466,76.8088 227.5,78C 225.676,80.0815 224.009,79.9148 222.5,77.5C 217.742,81.8951 214.075,81.0618 211.5,75C 213.701,74.2232 213.701,73.0565 211.5,71.5C 210.808,72.0253 210.308,72.6919 210,73.5C 208.591,71.0459 206.758,69.0459 204.5,67.5C 204.179,65.9519 203.179,65.2852 201.5,65.5C 201.912,63.0274 200.912,61.6941 198.5,61.5C 196.646,46.5893 195.979,31.5893 196.5,16.5C 197.833,13.1667 200.167,10.8333 203.5,9.5 Z"/></g>
<g><path style="opacity:1" fill="#498ac2" d="M 143.5,47.5 C 143.833,47.5 144.167,47.5 144.5,47.5C 144.599,50.2372 144.265,52.9039 143.5,55.5C 141.476,58.3718 138.809,60.7051 135.5,62.5C 137.705,60.6366 139.039,58.3033 139.5,55.5C 140.65,52.7018 141.983,50.0352 143.5,47.5 Z"/></g>
<g><path style="opacity:1" fill="#5ec1fa" d="M 223.5,54.5 C 225.88,56.2367 227.547,58.57 228.5,61.5C 231.215,63.7334 234.215,65.4001 237.5,66.5C 237.833,66.5 238.167,66.5 238.5,66.5C 238.263,67.791 238.596,68.791 239.5,69.5C 239.5,70.5 239.5,71.5 239.5,72.5C 240.833,72.5 242.167,72.5 243.5,72.5C 243.321,74.6056 242.321,76.2723 240.5,77.5C 239.571,76.3112 239.238,74.9778 239.5,73.5C 235.297,72.7021 232.63,74.3688 231.5,78.5C 232.5,79.1667 233.5,79.8333 234.5,80.5C 232.604,81.4656 230.604,81.7989 228.5,81.5C 229.031,84.7794 231.031,86.1128 234.5,85.5C 234.5,86.8333 234.5,88.1667 234.5,89.5C 232.097,89.448 229.764,89.7814 227.5,90.5C 225.266,88.5541 222.599,87.3874 219.5,87C 217.559,84.5464 215.225,82.713 212.5,81.5C 210.833,80.5 209.5,79.1667 208.5,77.5C 207.702,73.911 206.369,70.5777 204.5,67.5C 206.758,69.0459 208.591,71.0459 210,73.5C 210.308,72.6919 210.808,72.0253 211.5,71.5C 213.701,73.0565 213.701,74.2232 211.5,75C 214.075,81.0618 217.742,81.8951 222.5,77.5C 224.009,79.9148 225.676,80.0815 227.5,78C 224.466,76.8088 222.799,74.6421 222.5,71.5C 216.51,70.784 215.344,68.1174 219,63.5C 221.422,66.0033 223.088,69.0033 224,72.5C 224.75,71.8742 225.584,71.3742 226.5,71C 225.308,69.0548 225.308,67.0548 226.5,65C 225.711,63.3745 224.711,61.8745 223.5,60.5C 224.248,58.5841 224.248,56.5841 223.5,54.5 Z"/></g>
<g><path style="opacity:1" fill="#5db1f9" d="M 143.5,55.5 C 141.973,58.3891 140.973,61.2224 140.5,64C 141.701,64.9025 142.535,66.0692 143,67.5C 144.194,62.3481 145.36,62.3481 146.5,67.5C 149.667,67.5999 152.667,66.9332 155.5,65.5C 157.132,66.2974 158.632,67.2974 160,68.5C 162.627,67.3664 164.793,65.6997 166.5,63.5C 161.633,74.6968 153.967,83.3635 143.5,89.5C 143.851,85.2986 146.017,82.2986 150,80.5C 150.687,78.4325 150.52,76.4325 149.5,74.5C 149.977,73.5224 150.643,72.6891 151.5,72C 150.5,71.3333 149.5,71.3333 148.5,72C 147.859,74.1303 146.526,75.6303 144.5,76.5C 141.112,75.8152 138.112,74.4819 135.5,72.5C 132.971,72.9289 130.638,73.5955 128.5,74.5C 127.922,75.547 127.256,75.3803 126.5,74C 127.38,72.6439 127.714,71.1439 127.5,69.5C 133.142,70.2288 135.809,67.8955 135.5,62.5C 138.809,60.7051 141.476,58.3718 143.5,55.5 Z"/></g>
<g><path style="opacity:0.275" fill="#2d547d" d="M 139.5,55.5 C 139.039,58.3033 137.705,60.6366 135.5,62.5C 131.833,65.1667 128.167,67.8333 124.5,70.5C 123.833,70.5 123.167,70.5 122.5,70.5C 129.082,66.587 134.749,61.587 139.5,55.5 Z"/></g>
<g><path style="opacity:0.125" fill="#376187" d="M 171.5,52.5 C 169.914,61.338 166.414,69.338 161,76.5C 151.322,86.9127 140.155,95.246 127.5,101.5C 127.414,100.504 127.748,99.6708 128.5,99C 134.287,96.7901 139.287,93.6234 143.5,89.5C 153.967,83.3635 161.633,74.6968 166.5,63.5C 168.277,60.4954 169.277,57.1621 169.5,53.5C 170.167,53.1667 170.833,52.8333 171.5,52.5 Z"/></g>
<g><path style="opacity:1" fill="#62b3fc" d="M 143.5,89.5 C 137.873,88.1663 133.873,89.9997 131.5,95C 129.765,95.6514 128.098,95.4847 126.5,94.5C 124.312,95.4443 122.979,97.111 122.5,99.5C 121.675,100.386 120.675,100.719 119.5,100.5C 117.565,99.8505 115.565,99.5172 113.5,99.5C 113.703,97.6096 113.037,96.1096 111.5,95C 116.17,92.3279 120.837,89.6613 125.5,87C 126.928,85.0838 127.928,82.9171 128.5,80.5C 129.086,80.7093 129.586,81.0426 130,81.5C 132.1,78.2613 131.6,75.928 128.5,74.5C 130.638,73.5955 132.971,72.9289 135.5,72.5C 138.112,74.4819 141.112,75.8152 144.5,76.5C 146.526,75.6303 147.859,74.1303 148.5,72C 149.5,71.3333 150.5,71.3333 151.5,72C 150.643,72.6891 149.977,73.5224 149.5,74.5C 150.52,76.4325 150.687,78.4325 150,80.5C 146.017,82.2986 143.851,85.2986 143.5,89.5 Z"/></g>
<g><path style="opacity:0.882" fill="#498db6" d="M 198.5,61.5 C 200.912,61.6941 201.912,63.0274 201.5,65.5C 203.179,65.2852 204.179,65.9519 204.5,67.5C 206.369,70.5777 207.702,73.911 208.5,77.5C 203.656,73.1515 200.322,67.8182 198.5,61.5 Z"/></g>
<g><path style="opacity:0.373" fill="#3a708c" d="M 238.5,66.5 C 247.035,71.263 255.368,76.263 263.5,81.5C 262.127,81.6567 260.793,81.49 259.5,81C 253.194,76.512 246.528,72.6787 239.5,69.5C 238.596,68.791 238.263,67.791 238.5,66.5 Z"/></g>
<g><path style="opacity:0.961" fill="#4983b2" d="M 122.5,70.5 C 123.167,70.5 123.833,70.5 124.5,70.5C 123.71,71.7942 122.71,72.9609 121.5,74C 115.383,77.6469 109.05,80.8135 102.5,83.5C 103.694,82.7281 104.694,81.7281 105.5,80.5C 110.665,76.4137 116.332,73.0804 122.5,70.5 Z"/></g>
<g><path style="opacity:0.4" fill="#3d7188" d="M 263.5,81.5 C 267.683,83.0875 271.35,85.4208 274.5,88.5C 271.167,86.8333 267.833,85.1667 264.5,83.5C 263.662,83.1583 263.328,82.4916 263.5,81.5 Z"/></g>
<g><path style="opacity:1" fill="#64cefb" d="M 239.5,69.5 C 246.528,72.6787 253.194,76.512 259.5,81C 260.793,81.49 262.127,81.6567 263.5,81.5C 263.328,82.4916 263.662,83.1583 264.5,83.5C 264.649,84.552 264.483,85.552 264,86.5C 260.543,86.7486 256.71,86.7486 252.5,86.5C 252.125,91.5407 252.125,96.874 252.5,102.5C 251.167,102.5 249.833,102.5 248.5,102.5C 245.992,100.446 242.992,99.446 239.5,99.5C 238.358,97.5669 236.692,96.0669 234.5,95C 233.207,94.51 231.873,94.3433 230.5,94.5C 229.789,92.9699 228.789,91.6366 227.5,90.5C 229.764,89.7814 232.097,89.448 234.5,89.5C 234.5,88.1667 234.5,86.8333 234.5,85.5C 231.031,86.1128 229.031,84.7794 228.5,81.5C 230.604,81.7989 232.604,81.4656 234.5,80.5C 233.5,79.8333 232.5,79.1667 231.5,78.5C 232.63,74.3688 235.297,72.7021 239.5,73.5C 239.238,74.9778 239.571,76.3112 240.5,77.5C 242.321,76.2723 243.321,74.6056 243.5,72.5C 242.167,72.5 240.833,72.5 239.5,72.5C 239.5,71.5 239.5,70.5 239.5,69.5 Z"/></g>
<g><path style="opacity:0.467" fill="#3d6387" d="M 105.5,80.5 C 104.694,81.7281 103.694,82.7281 102.5,83.5C 93.1863,89.8255 84.5197,96.8255 76.5,104.5C 84.3626,94.3026 94.0293,86.3026 105.5,80.5 Z"/></g>
<g><path style="opacity:1" fill="#5091bd" d="M 212.5,81.5 C 215.225,82.713 217.559,84.5464 219.5,87C 222.599,87.3874 225.266,88.5541 227.5,90.5C 228.789,91.6366 229.789,92.9699 230.5,94.5C 223.377,91.7086 217.377,87.3753 212.5,81.5 Z"/></g>
<g><path style="opacity:1" fill="#6ab7fc" d="M 135.5,62.5 C 135.809,67.8955 133.142,70.2288 127.5,69.5C 127.714,71.1439 127.38,72.6439 126.5,74C 127.256,75.3803 127.922,75.547 128.5,74.5C 131.6,75.928 132.1,78.2613 130,81.5C 129.586,81.0426 129.086,80.7093 128.5,80.5C 127.928,82.9171 126.928,85.0838 125.5,87C 120.837,89.6613 116.17,92.3279 111.5,95C 113.037,96.1096 113.703,97.6096 113.5,99.5C 115.565,99.5172 117.565,99.8505 119.5,100.5C 115.072,104.557 110.072,107.891 104.5,110.5C 103.359,111.425 103.359,112.259 104.5,113C 101.338,113.446 98.3384,112.946 95.5,111.5C 95.6261,113.2 96.2927,114.7 97.5,116C 97.1667,116.5 96.8333,117 96.5,117.5C 93.984,114.357 90.6507,112.69 86.5,112.5C 83.8312,113.687 81.1645,114.52 78.5,115C 79.0219,114.439 79.3552,113.772 79.5,113C 78.3726,111.943 77.8726,110.777 78,109.5C 78.3333,109.833 78.6667,110.167 79,110.5C 79.6995,108.968 80.8662,107.968 82.5,107.5C 84.4876,104.835 86.4876,102.168 88.5,99.5C 89.6888,98.5713 91.0222,98.238 92.5,98.5C 92.5,97.1667 92.5,95.8333 92.5,94.5C 95.4495,96.0556 98.1162,95.7223 100.5,93.5C 100.291,92.914 99.9574,92.414 99.5,92C 103.542,90.4118 104.542,87.5785 102.5,83.5C 109.05,80.8135 115.383,77.6469 121.5,74C 122.71,72.9609 123.71,71.7942 124.5,70.5C 128.167,67.8333 131.833,65.1667 135.5,62.5 Z"/></g>
<g><path style="opacity:0.706" fill="#4a8ba6" d="M 230.5,94.5 C 231.873,94.3433 233.207,94.51 234.5,95C 236.692,96.0669 238.358,97.5669 239.5,99.5C 236.008,98.5903 233.008,96.9236 230.5,94.5 Z"/></g>
<g><path style="opacity:1" fill="#74d6f4" d="M 264.5,83.5 C 267.833,85.1667 271.167,86.8333 274.5,88.5C 276.984,91.1558 279.317,93.9891 281.5,97C 280.23,99.6264 280.896,101.793 283.5,103.5C 285.601,100.886 287.268,101.22 288.5,104.5C 288.477,106.6 289.144,108.433 290.5,110C 290.167,110.5 289.833,111 289.5,111.5C 285.866,110.489 282.199,110.489 278.5,111.5C 276.981,114.703 275.314,117.87 273.5,121C 275.414,122.413 276.747,124.247 277.5,126.5C 279.078,127.298 280.744,127.798 282.5,128C 281.695,129.113 281.028,130.279 280.5,131.5C 280.167,131.5 279.833,131.5 279.5,131.5C 277.821,130.084 276.154,128.75 274.5,127.5C 273.588,124.253 271.588,121.92 268.5,120.5C 266.431,117.427 263.764,115.094 260.5,113.5C 257.19,111.518 254.19,109.185 251.5,106.5C 251.229,104.57 250.229,103.236 248.5,102.5C 249.833,102.5 251.167,102.5 252.5,102.5C 252.125,96.874 252.125,91.5407 252.5,86.5C 256.71,86.7486 260.543,86.7486 264,86.5C 264.483,85.552 264.649,84.552 264.5,83.5 Z"/></g>
<g><path style="opacity:1" fill="#64b9ca" d="M 274.5,88.5 C 282.477,93.4773 289.143,99.8106 294.5,107.5C 293.5,106.833 292.5,106.167 291.5,105.5C 290.391,105.443 289.391,105.11 288.5,104.5C 287.268,101.22 285.601,100.886 283.5,103.5C 280.896,101.793 280.23,99.6264 281.5,97C 279.317,93.9891 276.984,91.1558 274.5,88.5 Z"/></g>
<g><path style="opacity:0.573" fill="#4e6086" d="M 159.5,102.5 C 155.269,100.515 150.936,100.182 146.5,101.5C 151.078,97.3831 155.411,97.7165 159.5,102.5 Z"/></g>
<g><path style="opacity:0.971" fill="#6d7198" d="M 222.5,102.5 C 216.476,100.673 210.809,101.34 205.5,104.5C 209.548,99.6492 214.548,98.1492 220.5,100C 221.381,100.708 222.047,101.542 222.5,102.5 Z"/></g>
<g><path style="opacity:1" fill="#5da1c1" d="M 239.5,99.5 C 242.992,99.446 245.992,100.446 248.5,102.5C 250.229,103.236 251.229,104.57 251.5,106.5C 247.164,104.668 243.164,102.335 239.5,99.5 Z"/></g>
<g><path style="opacity:0.51" fill="#4b6d8b" d="M 76.5,104.5 C 74.86,107.149 73.1933,109.816 71.5,112.5C 70.5,113.167 69.5,113.833 68.5,114.5C 70.6885,110.793 73.3552,107.46 76.5,104.5 Z"/></g>
<g><path style="opacity:0.78" fill="#6a6c8e" d="M 205.5,104.5 C 202.04,110.644 197.373,115.978 191.5,120.5C 195.801,114.865 200.467,109.532 205.5,104.5 Z"/></g>
<g><path style="opacity:0.722" fill="#5178a0" d="M 127.5,101.5 C 121.039,105.234 114.706,109.234 108.5,113.5C 112.979,106.75 119.312,102.75 127.5,101.5 Z"/></g>
<g><path style="opacity:0.514" fill="#637496" d="M 146.5,101.5 C 144.727,104.624 143.394,107.957 142.5,111.5C 142.692,113.577 143.192,115.577 144,117.5C 145.98,118.749 147.813,120.082 149.5,121.5C 149.5,122.833 149.5,124.167 149.5,125.5C 140.46,119.455 138.626,111.788 144,102.5C 144.671,101.748 145.504,101.414 146.5,101.5 Z"/></g>
<g><path style="opacity:1" fill="#7eddec" d="M 288.5,104.5 C 289.391,105.11 290.391,105.443 291.5,105.5C 292.299,108.43 292.632,111.43 292.5,114.5C 288.898,114.678 288.898,115.678 292.5,117.5C 291.349,118.731 290.183,118.731 289,117.5C 287.786,119.049 286.286,120.215 284.5,121C 285.43,122.194 286.097,123.527 286.5,125C 285.403,127.739 283.736,129.906 281.5,131.5C 281.167,131.5 280.833,131.5 280.5,131.5C 281.028,130.279 281.695,129.113 282.5,128C 280.744,127.798 279.078,127.298 277.5,126.5C 276.747,124.247 275.414,122.413 273.5,121C 275.314,117.87 276.981,114.703 278.5,111.5C 282.199,110.489 285.866,110.489 289.5,111.5C 289.833,111 290.167,110.5 290.5,110C 289.144,108.433 288.477,106.6 288.5,104.5 Z"/></g>
<g><path style="opacity:1" fill="#77b7f5" d="M 102.5,83.5 C 104.542,87.5785 103.542,90.4118 99.5,92C 99.9574,92.414 100.291,92.914 100.5,93.5C 98.1162,95.7223 95.4495,96.0556 92.5,94.5C 92.5,95.8333 92.5,97.1667 92.5,98.5C 91.0222,98.238 89.6888,98.5713 88.5,99.5C 86.4876,102.168 84.4876,104.835 82.5,107.5C 80.8662,107.968 79.6995,108.968 79,110.5C 78.6667,110.167 78.3333,109.833 78,109.5C 77.8726,110.777 78.3726,111.943 79.5,113C 79.3552,113.772 79.0219,114.439 78.5,115C 81.1645,114.52 83.8312,113.687 86.5,112.5C 90.6507,112.69 93.984,114.357 96.5,117.5C 96.8333,117 97.1667,116.5 97.5,116C 96.2927,114.7 95.6261,113.2 95.5,111.5C 98.3384,112.946 101.338,113.446 104.5,113C 103.359,112.259 103.359,111.425 104.5,110.5C 110.072,107.891 115.072,104.557 119.5,100.5C 120.675,100.719 121.675,100.386 122.5,99.5C 122.979,97.111 124.312,95.4443 126.5,94.5C 128.098,95.4847 129.765,95.6514 131.5,95C 133.873,89.9997 137.873,88.1663 143.5,89.5C 139.287,93.6234 134.287,96.7901 128.5,99C 127.748,99.6708 127.414,100.504 127.5,101.5C 119.312,102.75 112.979,106.75 108.5,113.5C 105.14,115.87 101.807,118.203 98.5,120.5C 92.7441,121.86 86.9108,122.86 81,123.5C 77.6148,120.929 74.2814,120.929 71,123.5C 69.6054,122.185 68.6054,122.519 68,124.5C 67.3333,122.5 67.3333,120.5 68,118.5C 69.9473,116.937 71.114,114.937 71.5,112.5C 73.1933,109.816 74.86,107.149 76.5,104.5C 84.5197,96.8255 93.1863,89.8255 102.5,83.5 Z"/></g>
<g><path style="opacity:1" fill="#94abec" d="M 159.5,102.5 C 162.167,103.167 163.833,104.833 164.5,107.5C 164.5,108.167 164.5,108.833 164.5,109.5C 163.185,108.524 161.852,107.524 160.5,106.5C 159.417,107.365 159.251,108.365 160,109.5C 161.878,111.043 163.378,112.876 164.5,115C 160.307,116.925 155.974,118.592 151.5,120C 152.252,120.671 152.586,121.504 152.5,122.5C 151.609,121.89 150.609,121.557 149.5,121.5C 147.813,120.082 145.98,118.749 144,117.5C 143.192,115.577 142.692,113.577 142.5,111.5C 143.394,107.957 144.727,104.624 146.5,101.5C 150.936,100.182 155.269,100.515 159.5,102.5 Z"/></g>
<g><path style="opacity:0.322" fill="#4b6f81" d="M 260.5,113.5 C 263.764,115.094 266.431,117.427 268.5,120.5C 265.236,118.906 262.569,116.573 260.5,113.5 Z"/></g>
<g><path style="opacity:0.471" fill="#5d5e7e" d="M 164.5,107.5 C 169.562,111.559 173.895,116.226 177.5,121.5C 174.5,118.833 171.5,116.167 168.5,113.5C 167.5,111.833 166.167,110.5 164.5,109.5C 164.5,108.833 164.5,108.167 164.5,107.5 Z"/></g>
<g><path style="opacity:1" fill="#aba5e1" d="M 222.5,102.5 C 223.527,106.446 223.694,110.446 223,114.5C 220.905,117.69 219.072,121.023 217.5,124.5C 217.5,125.167 217.167,125.5 216.5,125.5C 214.567,125.729 212.9,126.562 211.5,128C 210.177,128.816 209.511,129.983 209.5,131.5C 207.156,132.983 204.656,134.316 202,135.5C 197.92,134.889 194.42,133.223 191.5,130.5C 187.607,127.086 187.607,123.752 191.5,120.5C 197.373,115.978 202.04,110.644 205.5,104.5C 210.809,101.34 216.476,100.673 222.5,102.5 Z"/></g>
<g><path style="opacity:0.867" fill="#7c7c9d" d="M 222.5,102.5 C 226.087,105.695 227.254,109.695 226,114.5C 223.86,118.462 221.027,121.796 217.5,124.5C 219.072,121.023 220.905,117.69 223,114.5C 223.694,110.446 223.527,106.446 222.5,102.5 Z"/></g>
<g><path style="opacity:0.98" fill="#76adb0" d="M 294.5,107.5 C 298.592,111.258 301.926,115.591 304.5,120.5C 299.014,117.878 295.681,113.544 294.5,107.5 Z"/></g>
<g><path style="opacity:1" fill="#86e0e3" d="M 291.5,105.5 C 292.5,106.167 293.5,106.833 294.5,107.5C 295.681,113.544 299.014,117.878 304.5,120.5C 304.5,121.167 304.5,121.833 304.5,122.5C 303.518,121.859 302.518,121.193 301.5,120.5C 299.524,122.287 298.191,124.454 297.5,127C 294.522,127.696 291.522,128.196 288.5,128.5C 287.798,134.627 285.465,135.627 281.5,131.5C 283.736,129.906 285.403,127.739 286.5,125C 286.097,123.527 285.43,122.194 284.5,121C 286.286,120.215 287.786,119.049 289,117.5C 290.183,118.731 291.349,118.731 292.5,117.5C 288.898,115.678 288.898,114.678 292.5,114.5C 292.632,111.43 292.299,108.43 291.5,105.5 Z"/></g>
<g><path style="opacity:0.698" fill="#5a779d" d="M 108.5,113.5 C 104.833,117.833 100.833,121.833 96.5,125.5C 96.8308,123.678 97.4975,122.011 98.5,120.5C 101.807,118.203 105.14,115.87 108.5,113.5 Z"/></g>
<g><path style="opacity:0.686" fill="#628d9b" d="M 268.5,120.5 C 271.588,121.92 273.588,124.253 274.5,127.5C 271.757,125.761 269.757,123.427 268.5,120.5 Z"/></g>
<g><path style="opacity:1" fill="#afa4e5" d="M 164.5,109.5 C 166.167,110.5 167.5,111.833 168.5,113.5C 170.22,116.889 170.887,120.556 170.5,124.5C 164.26,124.648 163.593,125.815 168.5,128C 165.884,130.954 162.884,131.287 159.5,129C 156.97,126.967 154.637,124.8 152.5,122.5C 152.586,121.504 152.252,120.671 151.5,120C 155.974,118.592 160.307,116.925 164.5,115C 163.378,112.876 161.878,111.043 160,109.5C 159.251,108.365 159.417,107.365 160.5,106.5C 161.852,107.524 163.185,108.524 164.5,109.5 Z"/></g>
<g><path style="opacity:0.361" fill="#62597b" d="M 149.5,125.5 C 152.559,126.912 155.225,128.912 157.5,131.5C 158.11,132.391 158.443,133.391 158.5,134.5C 155.167,131.833 152.167,128.833 149.5,125.5 Z"/></g>
<g><path style="opacity:1" fill="#b8a2d7" d="M 168.5,113.5 C 171.5,116.167 174.5,118.833 177.5,121.5C 179.167,122.5 180.5,123.833 181.5,125.5C 180.414,125.62 179.747,126.287 179.5,127.5C 180.432,128.98 180.432,130.313 179.5,131.5C 178.482,126.348 176.815,126.181 174.5,131C 173,131.5 171.5,132 170,132.5C 168.56,131.852 167.06,131.519 165.5,131.5C 165.785,133.288 165.452,134.955 164.5,136.5C 162.55,134.295 160.216,132.628 157.5,131.5C 155.225,128.912 152.559,126.912 149.5,125.5C 149.5,124.167 149.5,122.833 149.5,121.5C 150.609,121.557 151.609,121.89 152.5,122.5C 154.637,124.8 156.97,126.967 159.5,129C 162.884,131.287 165.884,130.954 168.5,128C 163.593,125.815 164.26,124.648 170.5,124.5C 170.887,120.556 170.22,116.889 168.5,113.5 Z"/></g>
<g><path style="opacity:1" fill="#8db3f1" d="M 71.5,112.5 C 71.114,114.937 69.9473,116.937 68,118.5C 67.3333,120.5 67.3333,122.5 68,124.5C 68.6054,122.519 69.6054,122.185 71,123.5C 74.2814,120.929 77.6148,120.929 81,123.5C 86.9108,122.86 92.7441,121.86 98.5,120.5C 97.4975,122.011 96.8308,123.678 96.5,125.5C 96.5,126.167 96.1667,126.5 95.5,126.5C 93.8008,126.34 92.1341,126.506 90.5,127C 88.8492,128.943 86.8492,130.443 84.5,131.5C 82.8662,131.032 81.6995,130.032 81,128.5C 76.3227,130.042 71.4894,131.042 66.5,131.5C 64.9644,132.249 63.6311,133.249 62.5,134.5C 61.8182,133.757 61.1515,133.091 60.5,132.5C 60.2148,130.712 60.5481,129.045 61.5,127.5C 63.6866,123.08 66.02,118.746 68.5,114.5C 69.5,113.833 70.5,113.167 71.5,112.5 Z"/></g>
<g><path style="opacity:0.235" fill="#6e6680" d="M 216.5,125.5 C 214.781,128.219 212.447,130.219 209.5,131.5C 209.511,129.983 210.177,128.816 211.5,128C 212.9,126.562 214.567,125.729 216.5,125.5 Z"/></g>
<g><path style="opacity:1" fill="#687fa2" d="M 68.5,114.5 C 66.02,118.746 63.6866,123.08 61.5,127.5C 60.5481,129.045 60.2148,130.712 60.5,132.5C 58.7376,133.262 57.7376,134.596 57.5,136.5C 56.8333,136.5 56.1667,136.5 55.5,136.5C 58.3251,128.169 62.6585,120.836 68.5,114.5 Z"/></g>
<g><path style="opacity:1" fill="#80bab2" d="M 304.5,120.5 C 309.178,126.516 312.845,133.183 315.5,140.5C 313.5,138.5 311.5,136.5 309.5,134.5C 308.928,132.745 308.094,131.078 307,129.5C 306.667,130.5 306.333,131.5 306,132.5C 305.346,133.696 304.846,133.696 304.5,132.5C 305.739,129.17 305.739,125.837 304.5,122.5C 304.5,121.833 304.5,121.167 304.5,120.5 Z"/></g>
<g><path style="opacity:1" fill="#c99ccd" d="M 179.5,131.5 C 179.833,132.5 180.5,133.167 181.5,133.5C 182.028,134.721 182.695,135.887 183.5,137C 179.774,138.019 176.107,139.353 172.5,141C 171.901,142.622 171.234,144.122 170.5,145.5C 166.454,141.783 162.454,138.116 158.5,134.5C 158.443,133.391 158.11,132.391 157.5,131.5C 160.216,132.628 162.55,134.295 164.5,136.5C 165.452,134.955 165.785,133.288 165.5,131.5C 167.06,131.519 168.56,131.852 170,132.5C 171.5,132 173,131.5 174.5,131C 176.815,126.181 178.482,126.348 179.5,131.5 Z"/></g>
<g><path style="opacity:1" fill="#94e3d8" d="M 304.5,122.5 C 305.739,125.837 305.739,129.17 304.5,132.5C 304.846,133.696 305.346,133.696 306,132.5C 306.333,131.5 306.667,130.5 307,129.5C 308.094,131.078 308.928,132.745 309.5,134.5C 308.883,134.389 308.383,134.056 308,133.5C 306.667,135.5 305.333,137.5 304,139.5C 302.559,138.13 300.892,137.13 299,136.5C 298,137.833 297,137.833 296,136.5C 293.372,139.545 290.872,141.878 288.5,143.5C 287.5,143.5 286.5,143.5 285.5,143.5C 283.951,139.282 281.951,135.282 279.5,131.5C 279.833,131.5 280.167,131.5 280.5,131.5C 280.833,131.5 281.167,131.5 281.5,131.5C 285.465,135.627 287.798,134.627 288.5,128.5C 291.522,128.196 294.522,127.696 297.5,127C 298.191,124.454 299.524,122.287 301.5,120.5C 302.518,121.193 303.518,121.859 304.5,122.5 Z"/></g>
<g><path style="opacity:1" fill="#7e7399" d="M 191.5,130.5 C 194.42,133.223 197.92,134.889 202,135.5C 204.656,134.316 207.156,132.983 209.5,131.5C 207.14,134.858 204.14,137.525 200.5,139.5C 198.641,137.808 196.641,136.308 194.5,135C 192.859,133.871 191.859,132.371 191.5,130.5 Z"/></g>
<g><path style="opacity:0.157" fill="#658d8f" d="M 274.5,127.5 C 276.154,128.75 277.821,130.084 279.5,131.5C 281.951,135.282 283.951,139.282 285.5,143.5C 281.846,138.204 278.179,132.871 274.5,127.5 Z"/></g>
<g><path style="opacity:1" fill="#a0ade5" d="M 95.5,126.5 C 94.9202,128.749 93.5869,130.415 91.5,131.5C 89.2152,132.957 87.3819,134.957 86,137.5C 85.6667,137.167 85.3333,136.833 85,136.5C 83.6134,138.047 82.4467,139.713 81.5,141.5C 79.6258,143.128 77.6258,143.462 75.5,142.5C 72.915,143.735 70.7483,145.402 69,147.5C 67.272,145.123 64.9386,143.456 62,142.5C 60.6998,143.707 59.1998,144.374 57.5,144.5C 57.5,141.833 57.5,139.167 57.5,136.5C 57.7376,134.596 58.7376,133.262 60.5,132.5C 61.1515,133.091 61.8182,133.757 62.5,134.5C 63.6311,133.249 64.9644,132.249 66.5,131.5C 71.4894,131.042 76.3227,130.042 81,128.5C 81.6995,130.032 82.8662,131.032 84.5,131.5C 86.8492,130.443 88.8492,128.943 90.5,127C 92.1341,126.506 93.8008,126.34 95.5,126.5 Z"/></g>
<g><path style="opacity:1" fill="#ba8ba8" d="M 181.5,125.5 C 185.898,128.895 189.564,132.895 192.5,137.5C 192.894,139.71 194.227,141.043 196.5,141.5C 199.959,144.415 202.959,147.748 205.5,151.5C 203.5,150.5 201.5,149.5 199.5,148.5C 197.885,144.91 195.219,142.576 191.5,141.5C 187.667,139.397 184.334,136.731 181.5,133.5C 180.5,133.167 179.833,132.5 179.5,131.5C 180.432,130.313 180.432,128.98 179.5,127.5C 179.747,126.287 180.414,125.62 181.5,125.5 Z"/></g>
<g><path style="opacity:0.686" fill="#6a6782" d="M 55.5,136.5 C 54.4653,140.909 53.132,145.242 51.5,149.5C 49.0788,154.439 47.4122,159.772 46.5,165.5C 45.5489,166.919 45.2155,168.585 45.5,170.5C 44.8333,171.167 44.1667,171.833 43.5,172.5C 45.7297,159.811 49.7297,147.811 55.5,136.5 Z"/></g>
<g><path style="opacity:0.216" fill="#674f5e" d="M 192.5,137.5 C 194.773,137.957 196.106,139.29 196.5,141.5C 194.227,141.043 192.894,139.71 192.5,137.5 Z"/></g>
<g><path style="opacity:0.998" fill="#8e90b4" d="M 91.5,131.5 C 86.3064,139.887 81.6397,148.554 77.5,157.5C 78.1667,154.167 78.8333,150.833 79.5,147.5C 80.4582,145.698 81.1249,143.698 81.5,141.5C 82.4467,139.713 83.6134,138.047 85,136.5C 85.3333,136.833 85.6667,137.167 86,137.5C 87.3819,134.957 89.2152,132.957 91.5,131.5 Z"/></g>
<g><path style="opacity:1" fill="#dc98bf" d="M 181.5,133.5 C 184.334,136.731 187.667,139.397 191.5,141.5C 185.365,142.724 180.032,144.391 175.5,146.5C 175.5,147.833 175.5,149.167 175.5,150.5C 173.605,149.027 171.939,147.36 170.5,145.5C 171.234,144.122 171.901,142.622 172.5,141C 176.107,139.353 179.774,138.019 183.5,137C 182.695,135.887 182.028,134.721 181.5,133.5 Z"/></g>
<g><path style="opacity:1" fill="#9fe3cc" d="M 309.5,134.5 C 311.5,136.5 313.5,138.5 315.5,140.5C 315.264,143.609 315.597,146.609 316.5,149.5C 315.883,149.611 315.383,149.944 315,150.5C 314.304,147.522 313.804,144.522 313.5,141.5C 312.178,141.67 311.011,141.337 310,140.5C 309.627,142.698 309.127,144.865 308.5,147C 308.645,147.772 308.978,148.439 309.5,149C 306.212,149.977 303.212,151.477 300.5,153.5C 299.38,152.167 298.047,151.667 296.5,152C 296.833,152.333 297.167,152.667 297.5,153C 296.891,154.948 296.224,156.782 295.5,158.5C 293.842,153.41 291.509,148.41 288.5,143.5C 290.872,141.878 293.372,139.545 296,136.5C 297,137.833 298,137.833 299,136.5C 300.892,137.13 302.559,138.13 304,139.5C 305.333,137.5 306.667,135.5 308,133.5C 308.383,134.056 308.883,134.389 309.5,134.5 Z"/></g>
<g><path style="opacity:0.345" fill="#765a71" d="M 158.5,134.5 C 162.454,138.116 166.454,141.783 170.5,145.5C 171.939,147.36 173.605,149.027 175.5,150.5C 176.6,151.605 177.267,152.938 177.5,154.5C 170.464,148.465 164.131,141.798 158.5,134.5 Z"/></g>
<g><path style="opacity:1" fill="#afabdc" d="M 55.5,136.5 C 56.1667,136.5 56.8333,136.5 57.5,136.5C 57.5,139.167 57.5,141.833 57.5,144.5C 59.1998,144.374 60.6998,143.707 62,142.5C 64.9386,143.456 67.272,145.123 69,147.5C 70.7483,145.402 72.915,143.735 75.5,142.5C 77.6258,143.462 79.6258,143.128 81.5,141.5C 81.1249,143.698 80.4582,145.698 79.5,147.5C 77.7708,148.117 76.2708,149.117 75,150.5C 74.6667,150.167 74.3333,149.833 74,149.5C 72.3247,150.595 71.158,152.095 70.5,154C 68.5975,154.199 67.0975,155.033 66,156.5C 64.688,153.419 62.3546,151.752 59,151.5C 56.731,153.269 54.3977,153.935 52,153.5C 51.51,152.207 51.3433,150.873 51.5,149.5C 53.132,145.242 54.4653,140.909 55.5,136.5 Z"/></g>
<g><path style="opacity:1" fill="#e292a9" d="M 191.5,141.5 C 195.219,142.576 197.885,144.91 199.5,148.5C 196.972,147.816 194.805,146.482 193,144.5C 190.582,145.645 188.415,147.145 186.5,149C 184.527,149.495 182.527,149.662 180.5,149.5C 179.833,152.833 181.167,154.833 184.5,155.5C 185.421,157.777 186.087,160.11 186.5,162.5C 183.919,159.312 180.919,156.645 177.5,154.5C 177.267,152.938 176.6,151.605 175.5,150.5C 175.5,149.167 175.5,147.833 175.5,146.5C 180.032,144.391 185.365,142.724 191.5,141.5 Z"/></g>
<g><path style="opacity:1" fill="#93c0b1" d="M 285.5,143.5 C 286.5,143.5 287.5,143.5 288.5,143.5C 291.509,148.41 293.842,153.41 295.5,158.5C 296.234,159.708 296.567,161.041 296.5,162.5C 296.5,162.833 296.5,163.167 296.5,163.5C 296.167,163.5 295.833,163.5 295.5,163.5C 295.912,161.027 294.912,159.694 292.5,159.5C 290.185,154.244 287.852,148.91 285.5,143.5 Z"/></g>
<g><path style="opacity:1" fill="#ec879a" d="M 199.5,148.5 C 201.5,149.5 203.5,150.5 205.5,151.5C 208.742,156.414 212.742,160.747 217.5,164.5C 217.5,165.167 217.5,165.833 217.5,166.5C 215.728,164.71 213.728,163.377 211.5,162.5C 211.141,160.629 210.141,159.129 208.5,158C 206.089,156.045 203.589,154.211 201,152.5C 197.868,156.793 194.368,160.459 190.5,163.5C 190.629,165.216 190.962,166.883 191.5,168.5C 189.833,166.5 188.167,164.5 186.5,162.5C 186.087,160.11 185.421,157.777 184.5,155.5C 181.167,154.833 179.833,152.833 180.5,149.5C 182.527,149.662 184.527,149.495 186.5,149C 188.415,147.145 190.582,145.645 193,144.5C 194.805,146.482 196.972,147.816 199.5,148.5 Z"/></g>
<g><path style="opacity:0.506" fill="#86505d" d="M 205.5,151.5 C 210.23,155.227 214.23,159.56 217.5,164.5C 212.742,160.747 208.742,156.414 205.5,151.5 Z"/></g>
<g><path style="opacity:1" fill="#a9e3c3" d="M 316.5,149.5 C 317.89,150.899 318.89,152.566 319.5,154.5C 316.823,155.9 314.157,157.4 311.5,159C 308.421,160.09 306.088,159.257 304.5,156.5C 304.891,157.718 304.224,158.552 302.5,159C 300.866,159.494 299.199,159.66 297.5,159.5C 297.737,160.791 297.404,161.791 296.5,162.5C 296.567,161.041 296.234,159.708 295.5,158.5C 296.224,156.782 296.891,154.948 297.5,153C 297.167,152.667 296.833,152.333 296.5,152C 298.047,151.667 299.38,152.167 300.5,153.5C 303.212,151.477 306.212,149.977 309.5,149C 308.978,148.439 308.645,147.772 308.5,147C 309.127,144.865 309.627,142.698 310,140.5C 311.011,141.337 312.178,141.67 313.5,141.5C 313.804,144.522 314.304,147.522 315,150.5C 315.383,149.944 315.883,149.611 316.5,149.5 Z"/></g>
<g><path style="opacity:0.416" fill="#825056" d="M 165.5,151.5 C 166.601,150.402 167.934,150.235 169.5,151C 172.777,153.766 175.443,156.933 177.5,160.5C 174.369,157.871 171.369,155.038 168.5,152C 167.552,151.517 166.552,151.351 165.5,151.5 Z"/></g>
<g><path style="opacity:1" fill="#b9a4cf" d="M 79.5,147.5 C 78.8333,150.833 78.1667,154.167 77.5,157.5C 76.5,158.167 75.5,158.833 74.5,159.5C 71.8431,159.162 69.5098,159.829 67.5,161.5C 65.1385,160.224 62.9719,160.558 61,162.5C 57.8548,161.12 55.1881,161.786 53,164.5C 50.7655,163.02 48.9321,163.353 47.5,165.5C 47.1667,165.5 46.8333,165.5 46.5,165.5C 47.4122,159.772 49.0788,154.439 51.5,149.5C 51.3433,150.873 51.51,152.207 52,153.5C 54.3977,153.935 56.731,153.269 59,151.5C 62.3546,151.752 64.688,153.419 66,156.5C 67.0975,155.033 68.5975,154.199 70.5,154C 71.158,152.095 72.3247,150.595 74,149.5C 74.3333,149.833 74.6667,150.167 75,150.5C 76.2708,149.117 77.7708,148.117 79.5,147.5 Z"/></g>
<g><path style="opacity:1" fill="#f4808e" d="M 211.5,162.5 C 208.833,162.5 206.167,162.5 203.5,162.5C 203.719,161.325 203.386,160.325 202.5,159.5C 198.807,161.757 194.807,163.09 190.5,163.5C 194.368,160.459 197.868,156.793 201,152.5C 203.589,154.211 206.089,156.045 208.5,158C 210.141,159.129 211.141,160.629 211.5,162.5 Z"/></g>
<g><path style="opacity:1" fill="#b4e0b9" d="M 319.5,154.5 C 320.868,158.298 321.868,162.298 322.5,166.5C 321.304,168.29 319.971,169.957 318.5,171.5C 315.757,169.984 312.924,168.65 310,167.5C 307.364,167.545 304.53,167.712 301.5,168C 300.975,168.692 300.308,169.192 299.5,169.5C 298.117,167.68 297.117,165.68 296.5,163.5C 296.5,163.167 296.5,162.833 296.5,162.5C 297.404,161.791 297.737,160.791 297.5,159.5C 299.199,159.66 300.866,159.494 302.5,159C 304.224,158.552 304.891,157.718 304.5,156.5C 306.088,159.257 308.421,160.09 311.5,159C 314.157,157.4 316.823,155.9 319.5,154.5 Z"/></g>
<g><path style="opacity:0.38" fill="#799781" d="M 315.5,140.5 C 320.408,150.227 323.741,160.561 325.5,171.5C 324.263,170.035 323.263,168.368 322.5,166.5C 321.868,162.298 320.868,158.298 319.5,154.5C 318.89,152.566 317.89,150.899 316.5,149.5C 315.597,146.609 315.264,143.609 315.5,140.5 Z"/></g>
<g><path style="opacity:1" fill="#c7a0c6" d="M 74.5,159.5 C 74.9763,163.378 73.9763,166.712 71.5,169.5C 68.221,165.727 65.0543,166.06 62,170.5C 60.6569,169.786 59.3236,170.12 58,171.5C 55.1545,170.285 52.3212,169.285 49.5,168.5C 48.5748,167.643 47.9081,166.643 47.5,165.5C 48.9321,163.353 50.7655,163.02 53,164.5C 55.1881,161.786 57.8548,161.12 61,162.5C 62.9719,160.558 65.1385,160.224 67.5,161.5C 69.5098,159.829 71.8431,159.162 74.5,159.5 Z"/></g>
<g><path style="opacity:1" fill="#f67b7b" d="M 211.5,162.5 C 213.728,163.377 215.728,164.71 217.5,166.5C 220.264,169.719 223.264,172.719 226.5,175.5C 223.679,173.657 220.679,171.99 217.5,170.5C 215.682,171.636 213.682,172.303 211.5,172.5C 207.496,172.169 203.496,171.835 199.5,171.5C 199.167,172 198.833,172.5 198.5,173C 200.112,174.482 201.112,176.315 201.5,178.5C 198.087,177.054 196.087,174.387 195.5,170.5C 194.051,169.828 192.718,169.161 191.5,168.5C 190.962,166.883 190.629,165.216 190.5,163.5C 194.807,163.09 198.807,161.757 202.5,159.5C 203.386,160.325 203.719,161.325 203.5,162.5C 206.167,162.5 208.833,162.5 211.5,162.5 Z"/></g>
<g><path style="opacity:0.475" fill="#915655" d="M 177.5,160.5 C 179.306,162.089 180.639,164.089 181.5,166.5C 181.058,167.739 180.391,168.739 179.5,169.5C 178.833,166.5 178.167,163.5 177.5,160.5 Z"/></g>
<g><path style="opacity:0.592" fill="#884242" d="M 217.5,164.5 C 228.391,174.889 239.224,185.556 250,196.5C 250.791,197.745 251.291,199.078 251.5,200.5C 247.86,196.194 243.86,192.194 239.5,188.5C 235.5,183.833 231.167,179.5 226.5,175.5C 223.264,172.719 220.264,169.719 217.5,166.5C 217.5,165.833 217.5,165.167 217.5,164.5 Z"/></g>
<g><path style="opacity:1" fill="#d16c6b" d="M 164.5,154.5 C 162.913,157.268 161.08,159.935 159,162.5C 151.392,167.939 144.559,174.272 138.5,181.5C 136.167,183.167 134.167,185.167 132.5,187.5C 130.427,189.58 128.093,191.246 125.5,192.5C 137.864,179.135 150.864,166.468 164.5,154.5 Z"/></g>
<g><path style="opacity:0.388" fill="#80463b" d="M 179.5,169.5 C 175.833,173.833 171.833,177.833 167.5,181.5C 169.643,175.612 173.643,171.612 179.5,169.5 Z"/></g>
<g><path style="opacity:1" fill="#cf99b7" d="M 46.5,165.5 C 46.8333,165.5 47.1667,165.5 47.5,165.5C 47.9081,166.643 48.5748,167.643 49.5,168.5C 52.3212,169.285 55.1545,170.285 58,171.5C 59.3236,170.12 60.6569,169.786 62,170.5C 65.0543,166.06 68.221,165.727 71.5,169.5C 71.7947,171.735 71.4614,173.735 70.5,175.5C 68.0715,174.361 66.0715,175.027 64.5,177.5C 59.3133,180.019 54.1466,180.019 49,177.5C 46.4634,180.174 44.6301,183.174 43.5,186.5C 44.1667,181.167 44.8333,175.833 45.5,170.5C 45.2155,168.585 45.5489,166.919 46.5,165.5 Z"/></g>
<g><path style="opacity:1" fill="#f3746a" d="M 165.5,151.5 C 166.552,151.351 167.552,151.517 168.5,152C 171.369,155.038 174.369,157.871 177.5,160.5C 178.167,163.5 178.833,166.5 179.5,169.5C 173.643,171.612 169.643,175.612 167.5,181.5C 162.776,183.876 158.776,187.209 155.5,191.5C 155.498,187.313 157.498,184.813 161.5,184C 162.337,182.989 162.67,181.822 162.5,180.5C 166.167,180.167 168.167,178.167 168.5,174.5C 165.642,174.028 163.642,175.028 162.5,177.5C 162.631,176.761 162.464,176.094 162,175.5C 160.903,177.053 159.57,178.386 158,179.5C 156.75,178.427 155.416,178.427 154,179.5C 152.63,181.203 150.964,182.536 149,183.5C 145.978,180.462 142.478,179.796 138.5,181.5C 144.559,174.272 151.392,167.939 159,162.5C 161.08,159.935 162.913,157.268 164.5,154.5C 165.11,153.609 165.443,152.609 165.5,151.5 Z"/></g>
<g><path style="opacity:0.282" fill="#869182" d="M 292.5,159.5 C 294.912,159.694 295.912,161.027 295.5,163.5C 296.833,169.5 298.167,175.5 299.5,181.5C 299.5,182.833 299.5,184.167 299.5,185.5C 298.833,184.167 298.167,182.833 297.5,181.5C 296.459,174.006 294.793,166.672 292.5,159.5 Z"/></g>
<g><path style="opacity:1" fill="#f27164" d="M 226.5,175.5 C 231.167,179.5 235.5,183.833 239.5,188.5C 237.246,187.585 235.246,186.252 233.5,184.5C 228.968,180.693 223.635,179.027 217.5,179.5C 217.5,180.5 217.5,181.5 217.5,182.5C 215.5,182.5 213.5,182.5 211.5,182.5C 211.343,183.873 211.51,185.207 212,186.5C 213.672,190.519 215.839,194.186 218.5,197.5C 216.098,195.091 213.431,193.091 210.5,191.5C 207.89,186.891 204.89,182.558 201.5,178.5C 201.112,176.315 200.112,174.482 198.5,173C 198.833,172.5 199.167,172 199.5,171.5C 203.496,171.835 207.496,172.169 211.5,172.5C 213.682,172.303 215.682,171.636 217.5,170.5C 220.679,171.99 223.679,173.657 226.5,175.5 Z"/></g>
<g><path style="opacity:1" fill="#c3deb1" d="M 295.5,163.5 C 295.833,163.5 296.167,163.5 296.5,163.5C 297.117,165.68 298.117,167.68 299.5,169.5C 300.308,169.192 300.975,168.692 301.5,168C 304.53,167.712 307.364,167.545 310,167.5C 312.924,168.65 315.757,169.984 318.5,171.5C 319.971,169.957 321.304,168.29 322.5,166.5C 323.263,168.368 324.263,170.035 325.5,171.5C 325.5,174.833 325.5,178.167 325.5,181.5C 323.153,179.018 320.653,179.018 318,181.5C 314.054,177.905 309.554,176.905 304.5,178.5C 304.167,177.833 303.833,177.167 303.5,176.5C 301.982,178.621 300.982,180.954 300.5,183.5C 300.672,182.508 300.338,181.842 299.5,181.5C 298.167,175.5 296.833,169.5 295.5,163.5 Z"/></g>
<g><path style="opacity:0.69" fill="#9b7a8b" d="M 77.5,157.5 C 74.4288,166.59 72.4288,175.923 71.5,185.5C 71.1667,185.5 70.8333,185.5 70.5,185.5C 70.5,182.167 70.5,178.833 70.5,175.5C 71.4614,173.735 71.7947,171.735 71.5,169.5C 73.9763,166.712 74.9763,163.378 74.5,159.5C 75.5,158.833 76.5,158.167 77.5,157.5 Z"/></g>
<g><path style="opacity:0.478" fill="#8e4e50" d="M 177.5,154.5 C 180.919,156.645 183.919,159.312 186.5,162.5C 188.167,164.5 189.833,166.5 191.5,168.5C 192.718,169.161 194.051,169.828 195.5,170.5C 196.087,174.387 198.087,177.054 201.5,178.5C 204.89,182.558 207.89,186.891 210.5,191.5C 199.158,179.49 188.158,167.157 177.5,154.5 Z"/></g>
<g><path style="opacity:1" fill="#f46a5a" d="M 162.5,177.5 C 159.801,180.544 156.467,182.877 152.5,184.5C 149.962,189.942 145.628,192.609 139.5,192.5C 140.374,194.705 139.708,196.538 137.5,198C 135.097,198.63 133.263,197.797 132,195.5C 129.919,196.333 127.752,196.333 125.5,195.5C 127.429,193.852 129.429,192.185 131.5,190.5C 132.386,189.675 132.719,188.675 132.5,187.5C 134.167,185.167 136.167,183.167 138.5,181.5C 142.478,179.796 145.978,180.462 149,183.5C 150.964,182.536 152.63,181.203 154,179.5C 155.416,178.427 156.75,178.427 158,179.5C 159.57,178.386 160.903,177.053 162,175.5C 162.464,176.094 162.631,176.761 162.5,177.5 Z"/></g>
<g><path style="opacity:1" fill="#e293a6" d="M 70.5,175.5 C 70.5,178.833 70.5,182.167 70.5,185.5C 70.5,187.5 70.5,189.5 70.5,191.5C 69.5084,191.328 68.8417,191.662 68.5,192.5C 67.0929,189.935 64.9263,188.269 62,187.5C 57.8525,188.074 53.6859,188.407 49.5,188.5C 48.3527,188.182 47.5194,187.516 47,186.5C 45.3971,189.422 44.2304,192.422 43.5,195.5C 43.5,194.167 43.5,192.833 43.5,191.5C 43.5,189.833 43.5,188.167 43.5,186.5C 44.6301,183.174 46.4634,180.174 49,177.5C 54.1466,180.019 59.3133,180.019 64.5,177.5C 66.0715,175.027 68.0715,174.361 70.5,175.5 Z"/></g>
<g><path style="opacity:1" fill="#f56c4f" d="M 233.5,184.5 C 230.936,185.866 228.436,187.533 226,189.5C 225.323,187.311 224.156,186.978 222.5,188.5C 218.605,191.874 218.938,194.04 223.5,195C 223.167,195.333 222.833,195.667 222.5,196C 223.249,197.734 223.749,199.567 224,201.5C 228.315,205.649 232.482,209.982 236.5,214.5C 232.167,211.167 227.833,207.833 223.5,204.5C 222.246,201.907 220.58,199.573 218.5,197.5C 215.839,194.186 213.672,190.519 212,186.5C 211.51,185.207 211.343,183.873 211.5,182.5C 213.5,182.5 215.5,182.5 217.5,182.5C 217.5,181.5 217.5,180.5 217.5,179.5C 223.635,179.027 228.968,180.693 233.5,184.5 Z"/></g>
<g><path style="opacity:1" fill="#d2da9e" d="M 325.5,181.5 C 326.833,191.5 326.833,201.5 325.5,211.5C 325.5,207.5 325.5,203.5 325.5,199.5C 325.494,194.785 324.994,190.118 324,185.5C 323.333,186.833 322.667,186.833 322,185.5C 321.365,186.966 320.531,188.3 319.5,189.5C 313.862,190.33 308.196,190.83 302.5,191C 301.877,193.607 301.21,196.107 300.5,198.5C 300.5,193.5 300.5,188.5 300.5,183.5C 300.982,180.954 301.982,178.621 303.5,176.5C 303.833,177.167 304.167,177.833 304.5,178.5C 309.554,176.905 314.054,177.905 318,181.5C 320.653,179.018 323.153,179.018 325.5,181.5 Z"/></g>
<g><path style="opacity:0.498" fill="#823f42" d="M 165.5,151.5 C 165.443,152.609 165.11,153.609 164.5,154.5C 150.864,166.468 137.864,179.135 125.5,192.5C 122.473,194.86 119.806,197.527 117.5,200.5C 118.072,198.745 118.906,197.078 120,195.5C 134.731,180.267 149.898,165.6 165.5,151.5 Z"/></g>
<g><path style="opacity:1" fill="#f56b4e" d="M 155.5,191.5 C 152.815,195.183 149.482,198.183 145.5,200.5C 145.5,199.5 145.5,198.5 145.5,197.5C 140.547,198.281 135.713,199.614 131,201.5C 130.05,200.978 129.216,200.311 128.5,199.5C 127.833,200.5 127.167,201.5 126.5,202.5C 125.479,201.099 124.479,199.765 123.5,198.5C 124.167,197.5 124.833,196.5 125.5,195.5C 127.752,196.333 129.919,196.333 132,195.5C 133.263,197.797 135.097,198.63 137.5,198C 139.708,196.538 140.374,194.705 139.5,192.5C 145.628,192.609 149.962,189.942 152.5,184.5C 156.467,182.877 159.801,180.544 162.5,177.5C 163.642,175.028 165.642,174.028 168.5,174.5C 168.167,178.167 166.167,180.167 162.5,180.5C 162.67,181.822 162.337,182.989 161.5,184C 157.498,184.813 155.498,187.313 155.5,191.5 Z"/></g>
<g><path style="opacity:0.259" fill="#793528" d="M 210.5,191.5 C 213.431,193.091 216.098,195.091 218.5,197.5C 220.58,199.573 222.246,201.907 223.5,204.5C 218.833,200.5 214.5,196.167 210.5,191.5 Z"/></g>
<g><path style="opacity:1" fill="#dddc94" d="M 325.5,199.5 C 324.518,198.859 323.518,198.193 322.5,197.5C 319.851,198.972 317.018,199.972 314,200.5C 311.189,199.649 308.022,199.482 304.5,200C 303.239,202.662 301.906,205.162 300.5,207.5C 300.5,204.5 300.5,201.5 300.5,198.5C 301.21,196.107 301.877,193.607 302.5,191C 308.196,190.83 313.862,190.33 319.5,189.5C 320.531,188.3 321.365,186.966 322,185.5C 322.667,186.833 323.333,186.833 324,185.5C 324.994,190.118 325.494,194.785 325.5,199.5 Z"/></g>
<g><path style="opacity:0.694" fill="#924730" d="M 167.5,181.5 C 158.543,191.825 148.876,201.491 138.5,210.5C 138.557,209.391 138.89,208.391 139.5,207.5C 141.5,205.167 143.5,202.833 145.5,200.5C 149.482,198.183 152.815,195.183 155.5,191.5C 158.776,187.209 162.776,183.876 167.5,181.5 Z"/></g>
<g><path style="opacity:1" fill="#e65f44" d="M 233.5,184.5 C 235.246,186.252 237.246,187.585 239.5,188.5C 243.86,192.194 247.86,196.194 251.5,200.5C 251.962,205.769 250.629,210.436 247.5,214.5C 243.985,215.239 240.652,215.239 237.5,214.5C 246.384,214.623 250.217,210.29 249,201.5C 246.766,198.251 243.766,196.251 240,195.5C 239.667,196.167 239.333,196.833 239,197.5C 238.021,195.68 236.521,194.513 234.5,194C 234.833,193.667 235.167,193.333 235.5,193C 231.954,191.071 231.954,189.571 235.5,188.5C 234.37,187.378 233.703,186.044 233.5,184.5 Z"/></g>
<g><path style="opacity:0.137" fill="#686346" d="M 297.5,181.5 C 298.167,182.833 298.833,184.167 299.5,185.5C 299.666,194.506 299.5,203.506 299,212.5C 298.25,217.076 297.083,221.409 295.5,225.5C 298.428,210.934 299.095,196.267 297.5,181.5 Z"/></g>
<g><path style="opacity:1" fill="#ef8992" d="M 68.5,192.5 C 68.5,195.5 68.5,198.5 68.5,201.5C 67.2058,200.71 66.0391,199.71 65,198.5C 64,199.5 63,200.5 62,201.5C 57.1882,200.833 51.8549,199.833 46,198.5C 44.7633,202.06 44.2633,205.727 44.5,209.5C 43.5139,205.03 43.1805,200.363 43.5,195.5C 44.2304,192.422 45.3971,189.422 47,186.5C 47.5194,187.516 48.3527,188.182 49.5,188.5C 53.6859,188.407 57.8525,188.074 62,187.5C 64.9263,188.269 67.0929,189.935 68.5,192.5 Z"/></g>
<g><path style="opacity:0.711" fill="#7f8059" d="M 325.5,171.5 C 328.459,185.405 329.126,199.405 327.5,213.5C 326.833,214.167 326.167,214.833 325.5,215.5C 325.5,214.167 325.5,212.833 325.5,211.5C 326.833,201.5 326.833,191.5 325.5,181.5C 325.5,178.167 325.5,174.833 325.5,171.5 Z"/></g>
<g><path style="opacity:0.367" fill="#7b515a" d="M 45.5,170.5 C 44.8333,175.833 44.1667,181.167 43.5,186.5C 43.5,188.167 43.5,189.833 43.5,191.5C 42.5206,194.625 42.1872,197.958 42.5,201.5C 41.8333,201.5 41.1667,201.5 40.5,201.5C 40.8971,191.724 41.8971,182.057 43.5,172.5C 44.1667,171.833 44.8333,171.167 45.5,170.5 Z"/></g>
<g><path style="opacity:1" fill="#e4d884" d="M 325.5,199.5 C 325.5,203.5 325.5,207.5 325.5,211.5C 325.5,212.833 325.5,214.167 325.5,215.5C 325.314,221.581 324.481,227.581 323,233.5C 322.626,235.491 321.793,237.158 320.5,238.5C 321.313,234.191 322.147,229.857 323,225.5C 323.667,220.833 323.667,216.167 323,211.5C 321.853,210.542 320.853,210.875 320,212.5C 315.333,211.167 310.667,211.167 306,212.5C 304.667,211.833 303.667,210.833 303,209.5C 302.626,211.491 301.793,213.158 300.5,214.5C 300.5,212.167 300.5,209.833 300.5,207.5C 301.906,205.162 303.239,202.662 304.5,200C 308.022,199.482 311.189,199.649 314,200.5C 317.018,199.972 319.851,198.972 322.5,197.5C 323.518,198.193 324.518,198.859 325.5,199.5 Z"/></g>
<g><path style="opacity:0.961" fill="#bf7372" d="M 70.5,191.5 C 70.5,196.833 70.5,202.167 70.5,207.5C 68.6921,206.082 68.0254,204.082 68.5,201.5C 68.5,198.5 68.5,195.5 68.5,192.5C 68.8417,191.662 69.5084,191.328 70.5,191.5 Z"/></g>
<g><path style="opacity:1" fill="#d9644b" d="M 132.5,187.5 C 132.719,188.675 132.386,189.675 131.5,190.5C 129.429,192.185 127.429,193.852 125.5,195.5C 124.833,196.5 124.167,197.5 123.5,198.5C 118.271,203.129 118.271,207.796 123.5,212.5C 126.438,213.575 129.438,213.741 132.5,213C 134.199,210.375 136.532,208.542 139.5,207.5C 138.89,208.391 138.557,209.391 138.5,210.5C 135.776,211.39 133.443,212.89 131.5,215C 128.518,215.498 125.518,215.665 122.5,215.5C 118.654,211.294 116.987,206.294 117.5,200.5C 119.806,197.527 122.473,194.86 125.5,192.5C 128.093,191.246 130.427,189.58 132.5,187.5 Z"/></g>
<g><path style="opacity:1" fill="#f4673f" d="M 145.5,200.5 C 143.5,202.833 141.5,205.167 139.5,207.5C 136.532,208.542 134.199,210.375 132.5,213C 129.438,213.741 126.438,213.575 123.5,212.5C 118.271,207.796 118.271,203.129 123.5,198.5C 124.479,199.765 125.479,201.099 126.5,202.5C 127.167,201.5 127.833,200.5 128.5,199.5C 129.216,200.311 130.05,200.978 131,201.5C 135.713,199.614 140.547,198.281 145.5,197.5C 145.5,198.5 145.5,199.5 145.5,200.5 Z"/></g>
<g><path style="opacity:1" fill="#f48380" d="M 68.5,201.5 C 68.0254,204.082 68.6921,206.082 70.5,207.5C 70.5,209.5 70.5,211.5 70.5,213.5C 69.1656,211.534 67.8322,209.534 66.5,207.5C 65.914,207.709 65.414,208.043 65,208.5C 59.0277,208.022 53.361,206.355 48,203.5C 47.0546,203.905 46.3879,204.572 46,205.5C 45.5026,208.146 45.3359,210.813 45.5,213.5C 44.5655,212.432 44.2322,211.099 44.5,209.5C 44.2633,205.727 44.7633,202.06 46,198.5C 51.8549,199.833 57.1882,200.833 62,201.5C 63,200.5 64,199.5 65,198.5C 66.0391,199.71 67.2058,200.71 68.5,201.5 Z"/></g>
<g><path style="opacity:0.196" fill="#6f461c" d="M 213.5,205.5 C 218.678,203.586 222.345,205.253 224.5,210.5C 223.078,209.075 221.411,208.075 219.5,207.5C 218.01,205.72 216.01,205.054 213.5,205.5 Z"/></g>
<g><path style="opacity:0.306" fill="#754540" d="M 70.5,185.5 C 70.8333,185.5 71.1667,185.5 71.5,185.5C 70.9049,198.974 71.9049,212.307 74.5,225.5C 73.8333,224.833 73.1667,224.167 72.5,223.5C 72.678,219.878 72.0114,216.544 70.5,213.5C 70.5,211.5 70.5,209.5 70.5,207.5C 70.5,202.167 70.5,196.833 70.5,191.5C 70.5,189.5 70.5,187.5 70.5,185.5 Z"/></g>
<g><path style="opacity:1" fill="#e98d37" d="M 219.5,207.5 C 221.411,208.075 223.078,209.075 224.5,210.5C 225.906,210.973 226.573,211.973 226.5,213.5C 226.54,216.881 226.207,220.214 225.5,223.5C 217.53,230.301 209.697,237.301 202,244.5C 196.906,241.241 193.072,236.908 190.5,231.5C 193.398,225.932 197.398,221.266 202.5,217.5C 205.964,214.538 209.297,211.371 212.5,208C 214.81,207.503 217.143,207.337 219.5,207.5 Z"/></g>
<g><path style="opacity:1" fill="#f9633f" d="M 233.5,184.5 C 233.703,186.044 234.37,187.378 235.5,188.5C 231.954,189.571 231.954,191.071 235.5,193C 235.167,193.333 234.833,193.667 234.5,194C 236.521,194.513 238.021,195.68 239,197.5C 239.333,196.833 239.667,196.167 240,195.5C 243.766,196.251 246.766,198.251 249,201.5C 250.217,210.29 246.384,214.623 237.5,214.5C 237.167,214.5 236.833,214.5 236.5,214.5C 232.482,209.982 228.315,205.649 224,201.5C 223.749,199.567 223.249,197.734 222.5,196C 222.833,195.667 223.167,195.333 223.5,195C 218.938,194.04 218.605,191.874 222.5,188.5C 224.156,186.978 225.323,187.311 226,189.5C 228.436,187.533 230.936,185.866 233.5,184.5 Z"/></g>
<g><path style="opacity:0.431" fill="#813b1b" d="M 164.5,211.5 C 160.931,208.098 156.765,205.764 152,204.5C 148.036,205.964 145.203,208.631 143.5,212.5C 143.5,212.833 143.5,213.167 143.5,213.5C 142.335,214.496 141.668,215.829 141.5,217.5C 142.178,219.516 142.844,221.516 143.5,223.5C 140.697,220.796 139.863,217.463 141,213.5C 145.861,202.417 153.028,200.584 162.5,208C 163.823,208.816 164.489,209.983 164.5,211.5 Z"/></g>
<g><path style="opacity:0.945" fill="#b47135" d="M 213.5,205.5 C 216.01,205.054 218.01,205.72 219.5,207.5C 217.143,207.337 214.81,207.503 212.5,208C 209.297,211.371 205.964,214.538 202.5,217.5C 204.763,213.897 207.43,210.564 210.5,207.5C 210.973,206.094 211.973,205.427 213.5,205.5 Z"/></g>
<g><path style="opacity:0.157" fill="#773222" d="M 251.5,200.5 C 254.093,206.077 252.76,210.743 247.5,214.5C 250.629,210.436 251.962,205.769 251.5,200.5 Z"/></g>
<g><path style="opacity:0.4" fill="#7b3b30" d="M 117.5,200.5 C 116.987,206.294 118.654,211.294 122.5,215.5C 118.234,213.671 115.901,210.337 115.5,205.5C 115.801,203.578 116.467,201.912 117.5,200.5 Z"/></g>
<g><path style="opacity:0.475" fill="#793d24" d="M 164.5,211.5 C 168.623,215.079 172.29,219.079 175.5,223.5C 173.284,222.797 171.451,221.464 170,219.5C 167.92,216.935 166.087,214.268 164.5,211.5 Z"/></g>
<g><path style="opacity:1" fill="#f67765" d="M 70.5,213.5 C 72.0114,216.544 72.678,219.878 72.5,223.5C 70.9159,221.471 69.5826,219.138 68.5,216.5C 66.1713,217.771 65.0047,219.771 65,222.5C 64.059,220.939 62.8924,219.605 61.5,218.5C 59.708,220.139 57.708,221.472 55.5,222.5C 53.4475,219.774 50.9475,217.44 48,215.5C 47.2086,216.745 46.7086,218.078 46.5,219.5C 45.5386,217.735 45.2053,215.735 45.5,213.5C 45.3359,210.813 45.5026,208.146 46,205.5C 46.3879,204.572 47.0546,203.905 48,203.5C 53.361,206.355 59.0277,208.022 65,208.5C 65.414,208.043 65.914,207.709 66.5,207.5C 67.8322,209.534 69.1656,211.534 70.5,213.5 Z"/></g>
<g><path style="opacity:0.608" fill="#7c3c2e" d="M 138.5,210.5 C 134.502,217.058 129.169,218.725 122.5,215.5C 125.518,215.665 128.518,215.498 131.5,215C 133.443,212.89 135.776,211.39 138.5,210.5 Z"/></g>
<g><path style="opacity:0.741" fill="#893c2e" d="M 223.5,204.5 C 227.833,207.833 232.167,211.167 236.5,214.5C 236.833,214.5 237.167,214.5 237.5,214.5C 240.652,215.239 243.985,215.239 247.5,214.5C 243.147,218.309 238.48,218.476 233.5,215C 229.963,211.631 226.629,208.131 223.5,204.5 Z"/></g>
<g><path style="opacity:1" fill="#c46a5c" d="M 43.5,191.5 C 43.5,192.833 43.5,194.167 43.5,195.5C 43.1805,200.363 43.5139,205.03 44.5,209.5C 44.2322,211.099 44.5655,212.432 45.5,213.5C 45.2053,215.735 45.5386,217.735 46.5,219.5C 46.6458,223.519 46.9791,227.519 47.5,231.5C 43.8852,221.958 42.2186,211.958 42.5,201.5C 42.1872,197.958 42.5206,194.625 43.5,191.5 Z"/></g>
<g><path style="opacity:1" fill="#f86d21" d="M 170.5,222.5 C 171.818,226.19 172.818,229.69 173.5,233C 171.532,234.544 169.365,235.711 167,236.5C 164.959,236.802 162.792,236.468 160.5,235.5C 151.075,231.074 145.408,223.741 143.5,213.5C 143.5,213.167 143.5,212.833 143.5,212.5C 144.675,212.719 145.675,212.386 146.5,211.5C 147.633,207.19 150.3,205.69 154.5,207C 157.207,208.128 159.707,209.628 162,211.5C 162.711,213.899 162.544,216.232 161.5,218.5C 165.047,218.896 168.047,220.229 170.5,222.5 Z"/></g>
<g><path style="opacity:1" fill="#da662a" d="M 164.5,211.5 C 166.087,214.268 167.92,216.935 170,219.5C 171.451,221.464 173.284,222.797 175.5,223.5C 175.5,224.167 175.5,224.833 175.5,225.5C 173.668,224.752 172.001,223.752 170.5,222.5C 168.047,220.229 165.047,218.896 161.5,218.5C 162.544,216.232 162.711,213.899 162,211.5C 159.707,209.628 157.207,208.128 154.5,207C 150.3,205.69 147.633,207.19 146.5,211.5C 145.675,212.386 144.675,212.719 143.5,212.5C 145.203,208.631 148.036,205.964 152,204.5C 156.765,205.764 160.931,208.098 164.5,211.5 Z"/></g>
<g><path style="opacity:0.498" fill="#885224" d="M 226.5,213.5 C 229.199,217.092 228.865,220.426 225.5,223.5C 226.207,220.214 226.54,216.881 226.5,213.5 Z"/></g>
<g><path style="opacity:0.243" fill="#706738" d="M 327.5,213.5 C 326.723,225.407 324.056,236.741 319.5,247.5C 319.963,244.518 320.296,241.518 320.5,238.5C 321.793,237.158 322.626,235.491 323,233.5C 324.481,227.581 325.314,221.581 325.5,215.5C 326.167,214.833 326.833,214.167 327.5,213.5 Z"/></g>
<g><path style="opacity:1" fill="#beac72" d="M 299.5,181.5 C 300.338,181.842 300.672,182.508 300.5,183.5C 300.5,188.5 300.5,193.5 300.5,198.5C 300.5,201.5 300.5,204.5 300.5,207.5C 300.5,209.833 300.5,212.167 300.5,214.5C 299.791,219.959 298.125,224.959 295.5,229.5C 295.5,228.167 295.5,226.833 295.5,225.5C 297.083,221.409 298.25,217.076 299,212.5C 299.5,203.506 299.666,194.506 299.5,185.5C 299.5,184.167 299.5,182.833 299.5,181.5 Z"/></g>
<g><path style="opacity:1" fill="#f8912d" d="M 212.5,209.5 C 213.468,211.607 213.802,213.941 213.5,216.5C 215.144,216.714 216.644,216.38 218,215.5C 218.18,213.512 218.014,211.512 217.5,209.5C 221.82,209.655 224.486,211.821 225.5,216C 224.909,218.239 224.242,220.406 223.5,222.5C 221.738,222.643 220.071,222.309 218.5,221.5C 218.579,223.929 218.245,226.429 217.5,229C 214.458,231.875 210.791,233.208 206.5,233C 201.789,238.024 199.622,236.857 200,229.5C 199.333,228.167 198.667,228.167 198,229.5C 196.282,227.798 196.115,225.965 197.5,224C 200.772,223.563 202.439,221.73 202.5,218.5C 204.833,219.167 207.167,219.833 209.5,220.5C 208.807,216.247 209.807,212.581 212.5,209.5 Z"/></g>
<g><path style="opacity:1" fill="#efcc68" d="M 320.5,238.5 C 320.296,241.518 319.963,244.518 319.5,247.5C 317.177,250.135 315.344,253.135 314,256.5C 313.51,257.793 313.343,259.127 313.5,260.5C 311.408,263.681 309.075,266.681 306.5,269.5C 307.647,266.59 308.647,263.59 309.5,260.5C 312.276,254.893 315.109,249.226 318,243.5C 318.667,238.833 318.667,234.167 318,229.5C 316.983,226.972 315.816,226.972 314.5,229.5C 312.522,230.131 310.355,230.131 308,229.5C 305.259,231.067 304.092,233.401 304.5,236.5C 303.5,236.5 302.5,236.5 301.5,236.5C 301.502,234.169 300.669,232.169 299,230.5C 297.853,232.731 296.853,235.065 296,237.5C 295.292,238.381 294.458,239.047 293.5,239.5C 294.167,237.833 294.833,236.167 295.5,234.5C 295.5,232.833 295.5,231.167 295.5,229.5C 298.125,224.959 299.791,219.959 300.5,214.5C 301.793,213.158 302.626,211.491 303,209.5C 303.667,210.833 304.667,211.833 306,212.5C 310.667,211.167 315.333,211.167 320,212.5C 320.853,210.875 321.853,210.542 323,211.5C 323.667,216.167 323.667,220.833 323,225.5C 322.147,229.857 321.313,234.191 320.5,238.5 Z"/></g>
<g><path style="opacity:0.443" fill="#743c1e" d="M 175.5,223.5 C 178.903,225.9 181.57,228.9 183.5,232.5C 180.833,230.167 178.167,227.833 175.5,225.5C 175.5,224.833 175.5,224.167 175.5,223.5 Z"/></g>
<g><path style="opacity:0.047" fill="#7e4428" d="M 143.5,223.5 C 149.892,228.89 155.559,234.89 160.5,241.5C 154.108,236.11 148.441,230.11 143.5,223.5 Z"/></g>
<g><path style="opacity:1" fill="#f57051" d="M 72.5,223.5 C 72.5,224.833 72.5,226.167 72.5,227.5C 71.2502,227.423 70.4169,226.756 70,225.5C 68,226.833 66,226.833 64,225.5C 64.0539,228.191 62.8872,230.024 60.5,231C 57.1268,230.871 53.7935,230.538 50.5,230C 51.2547,234.53 51.588,239.364 51.5,244.5C 50.8333,244.167 50.1667,243.833 49.5,243.5C 48.8333,239.5 48.1667,235.5 47.5,231.5C 46.9791,227.519 46.6458,223.519 46.5,219.5C 46.7086,218.078 47.2086,216.745 48,215.5C 50.9475,217.44 53.4475,219.774 55.5,222.5C 57.708,221.472 59.708,220.139 61.5,218.5C 62.8924,219.605 64.059,220.939 65,222.5C 65.0047,219.771 66.1713,217.771 68.5,216.5C 69.5826,219.138 70.9159,221.471 72.5,223.5 Z"/></g>
<g><path style="opacity:1" fill="#d56c37" d="M 143.5,213.5 C 145.408,223.741 151.075,231.074 160.5,235.5C 162.385,237.053 163.385,239.053 163.5,241.5C 162.5,241.5 161.5,241.5 160.5,241.5C 155.559,234.89 149.892,228.89 143.5,223.5C 142.844,221.516 142.178,219.516 141.5,217.5C 141.668,215.829 142.335,214.496 143.5,213.5 Z"/></g>
<g><path style="opacity:0.839" fill="#98462f" d="M 72.5,223.5 C 73.1667,224.167 73.8333,224.833 74.5,225.5C 77.1169,232.757 79.7836,240.09 82.5,247.5C 81.1154,246.426 79.9487,245.093 79,243.5C 76.6476,238.205 74.4809,232.871 72.5,227.5C 72.5,226.167 72.5,224.833 72.5,223.5 Z"/></g>
<g><path style="opacity:0.596" fill="#804e2a" d="M 210.5,207.5 C 207.43,210.564 204.763,213.897 202.5,217.5C 197.398,221.266 193.398,225.932 190.5,231.5C 193.072,236.908 196.906,241.241 202,244.5C 209.697,237.301 217.53,230.301 225.5,223.5C 220.401,230.102 214.735,236.269 208.5,242C 206.333,243.5 204.167,245 202,246.5C 196.442,242.61 191.942,237.777 188.5,232C 188.862,230.775 189.362,229.609 190,228.5C 194,223.833 198,219.167 202,214.5C 204.436,211.553 207.269,209.22 210.5,207.5 Z"/></g>
<g><path style="opacity:0.2" fill="#7c3f32" d="M 40.5,201.5 C 41.1667,201.5 41.8333,201.5 42.5,201.5C 42.2186,211.958 43.8852,221.958 47.5,231.5C 48.1667,235.5 48.8333,239.5 49.5,243.5C 47.7115,239.735 46.2115,235.735 45,231.5C 43.0045,221.526 41.5045,211.526 40.5,201.5 Z"/></g>
<g><path style="opacity:1" fill="#fb852e" d="M 170.5,222.5 C 172.001,223.752 173.668,224.752 175.5,225.5C 180.612,230.944 184.946,236.944 188.5,243.5C 186.799,243.966 185.299,243.966 184,243.5C 183.675,247.616 182.841,251.616 181.5,255.5C 179.102,252.801 176.102,251.467 172.5,251.5C 168.162,249.489 165.162,246.156 163.5,241.5C 163.385,239.053 162.385,237.053 160.5,235.5C 162.792,236.468 164.959,236.802 167,236.5C 169.365,235.711 171.532,234.544 173.5,233C 172.818,229.69 171.818,226.19 170.5,222.5 Z"/></g>
<g><path style="opacity:1" fill="#f5683b" d="M 72.5,227.5 C 74.4809,232.871 76.6476,238.205 79,243.5C 79.9487,245.093 81.1154,246.426 82.5,247.5C 82.5,248.833 82.5,250.167 82.5,251.5C 79.3121,248.632 76.1454,245.632 73,242.5C 71.0457,244.645 69.879,246.812 69.5,249C 66.8986,251.498 65.5653,250.998 65.5,247.5C 63.7988,247.966 62.2988,247.966 61,247.5C 58.8746,248.484 57.7079,250.15 57.5,252.5C 58.5003,255.834 59.5003,259.168 60.5,262.5C 59.5416,262.047 58.7083,261.381 58,260.5C 55.3303,255.314 53.1637,249.98 51.5,244.5C 51.588,239.364 51.2547,234.53 50.5,230C 53.7935,230.538 57.1268,230.871 60.5,231C 62.8872,230.024 64.0539,228.191 64,225.5C 66,226.833 68,226.833 70,225.5C 70.4169,226.756 71.2502,227.423 72.5,227.5 Z"/></g>
<g><path style="opacity:1" fill="#d2793b" d="M 175.5,225.5 C 178.167,227.833 180.833,230.167 183.5,232.5C 185.914,233.911 187.581,235.911 188.5,238.5C 189.754,241.093 191.42,243.427 193.5,245.5C 191.833,244.833 190.167,244.167 188.5,243.5C 184.946,236.944 180.612,230.944 175.5,225.5 Z"/></g>
<g><path style="opacity:0.447" fill="#814c2f" d="M 188.5,238.5 C 198.888,247.886 208.554,257.886 217.5,268.5C 212.833,264.167 208.167,259.833 203.5,255.5C 200.5,251.833 197.167,248.5 193.5,245.5C 191.42,243.427 189.754,241.093 188.5,238.5 Z"/></g>
<g><path style="opacity:1" fill="#f7612f" d="M 82.5,251.5 C 83.3382,251.842 83.6716,252.508 83.5,253.5C 83.7598,256.529 84.7598,259.196 86.5,261.5C 84.2886,262.923 83.4553,264.923 84,267.5C 85.6134,266.378 86.7801,266.878 87.5,269C 86.9152,270.302 86.2485,271.469 85.5,272.5C 82.5299,272.254 81.1966,270.588 81.5,267.5C 79.4099,267.55 78.0766,266.55 77.5,264.5C 79.3909,263.689 80.7242,262.356 81.5,260.5C 79.3635,259.528 78.1968,257.861 78,255.5C 76.2942,256.308 75.4609,257.641 75.5,259.5C 71.8832,259.483 68.5499,260.483 65.5,262.5C 66.9079,263.243 68.2412,264.077 69.5,265C 68.3966,266.68 68.7299,268.18 70.5,269.5C 68.0428,271.332 68.0428,272.999 70.5,274.5C 71.5836,273.335 72.4169,272.002 73,270.5C 74.0968,272.053 75.4301,273.386 77,274.5C 77.0442,276.76 76.2108,278.76 74.5,280.5C 75.6507,281.731 76.8173,281.731 78,280.5C 78.957,282.709 80.1236,282.543 81.5,280C 82.5,279.333 83.5,279.333 84.5,280C 82.9632,281.11 82.2965,282.61 82.5,284.5C 83.8333,284.5 85.1667,284.5 86.5,284.5C 85.6575,287.154 85.1575,289.821 85,292.5C 88.0107,293.015 89.844,294.682 90.5,297.5C 90.5,297.833 90.5,298.167 90.5,298.5C 86.8333,295.833 83.1667,293.167 79.5,290.5C 74.9302,283.715 70.0969,277.049 65,270.5C 64.6682,267.457 63.1682,265.457 60.5,264.5C 60.5,263.833 60.5,263.167 60.5,262.5C 59.5003,259.168 58.5003,255.834 57.5,252.5C 57.7079,250.15 58.8746,248.484 61,247.5C 62.2988,247.966 63.7988,247.966 65.5,247.5C 65.5653,250.998 66.8986,251.498 69.5,249C 69.879,246.812 71.0457,244.645 73,242.5C 76.1454,245.632 79.3121,248.632 82.5,251.5 Z"/></g>
<g><path style="opacity:0.773" fill="#833924" d="M 82.5,247.5 C 84.653,249.794 86.3197,252.46 87.5,255.5C 85.9382,255.267 84.6049,254.6 83.5,253.5C 83.6716,252.508 83.3382,251.842 82.5,251.5C 82.5,250.167 82.5,248.833 82.5,247.5 Z"/></g>
<g><path style="opacity:1" fill="#d9ac53" d="M 295.5,234.5 C 294.833,236.167 294.167,237.833 293.5,239.5C 292.317,243.423 291.317,247.423 290.5,251.5C 287.848,254.822 285.181,258.155 282.5,261.5C 281.5,262.167 280.5,262.833 279.5,263.5C 285.625,255.408 290.125,246.408 293,236.5C 293.708,235.619 294.542,234.953 295.5,234.5 Z"/></g>
<g><path style="opacity:1" fill="#f7c353" d="M 309.5,260.5 C 308.691,253.935 307.357,253.935 305.5,260.5C 299.692,261.3 294.692,262.3 290.5,263.5C 290.935,260.404 291.435,257.404 292,254.5C 289.797,258.211 286.631,260.544 282.5,261.5C 285.181,258.155 287.848,254.822 290.5,251.5C 291.317,247.423 292.317,243.423 293.5,239.5C 294.458,239.047 295.292,238.381 296,237.5C 296.853,235.065 297.853,232.731 299,230.5C 300.669,232.169 301.502,234.169 301.5,236.5C 302.5,236.5 303.5,236.5 304.5,236.5C 304.092,233.401 305.259,231.067 308,229.5C 310.355,230.131 312.522,230.131 314.5,229.5C 315.816,226.972 316.983,226.972 318,229.5C 318.667,234.167 318.667,238.833 318,243.5C 315.109,249.226 312.276,254.893 309.5,260.5 Z"/></g>
<g><path style="opacity:0.537" fill="#964430" d="M 49.5,243.5 C 50.1667,243.833 50.8333,244.167 51.5,244.5C 53.1637,249.98 55.3303,255.314 58,260.5C 58.7083,261.381 59.5416,262.047 60.5,262.5C 60.5,263.167 60.5,263.833 60.5,264.5C 62.8046,267.407 64.1379,270.741 64.5,274.5C 57.6474,265.127 52.6474,254.793 49.5,243.5 Z"/></g>
<g><path style="opacity:0.427" fill="#866f3b" d="M 319.5,247.5 C 318.273,252.282 316.273,256.615 313.5,260.5C 313.343,259.127 313.51,257.793 314,256.5C 315.344,253.135 317.177,250.135 319.5,247.5 Z"/></g>
<g><path style="opacity:0.557" fill="#a6673c" d="M 160.5,241.5 C 161.5,241.5 162.5,241.5 163.5,241.5C 165.162,246.156 168.162,249.489 172.5,251.5C 178.8,258 185.133,264.333 191.5,270.5C 191.782,271.778 192.449,272.778 193.5,273.5C 193.833,274.167 194.167,274.833 194.5,275.5C 193.833,275.5 193.167,275.5 192.5,275.5C 182.172,263.839 171.505,252.505 160.5,241.5 Z"/></g>
<g><path style="opacity:1" fill="#fa602d" d="M 85.5,272.5 C 86.999,274.49 87.8324,276.823 88,279.5C 91.0032,276.727 93.5032,277.227 95.5,281C 93.8335,283.796 94.1668,286.296 96.5,288.5C 95.4783,289.354 94.6449,290.354 94,291.5C 92.5557,289.845 90.7224,289.178 88.5,289.5C 88.6938,293.707 90.6938,295.04 94.5,293.5C 96.4879,294.289 96.8213,295.455 95.5,297C 93.8659,297.494 92.1992,297.66 90.5,297.5C 89.844,294.682 88.0107,293.015 85,292.5C 85.1575,289.821 85.6575,287.154 86.5,284.5C 85.1667,284.5 83.8333,284.5 82.5,284.5C 82.2965,282.61 82.9632,281.11 84.5,280C 83.5,279.333 82.5,279.333 81.5,280C 80.1236,282.543 78.957,282.709 78,280.5C 76.8173,281.731 75.6507,281.731 74.5,280.5C 76.2108,278.76 77.0442,276.76 77,274.5C 75.4301,273.386 74.0968,272.053 73,270.5C 72.4169,272.002 71.5836,273.335 70.5,274.5C 68.0428,272.999 68.0428,271.332 70.5,269.5C 68.7299,268.18 68.3966,266.68 69.5,265C 68.2412,264.077 66.9079,263.243 65.5,262.5C 68.5499,260.483 71.8832,259.483 75.5,259.5C 75.4609,257.641 76.2942,256.308 78,255.5C 78.1968,257.861 79.3635,259.528 81.5,260.5C 80.7242,262.356 79.3909,263.689 77.5,264.5C 78.0766,266.55 79.4099,267.55 81.5,267.5C 81.1966,270.588 82.5299,272.254 85.5,272.5 Z"/></g>
<g><path style="opacity:0.98" fill="#b17338" d="M 203.5,255.5 C 208.167,259.833 212.833,264.167 217.5,268.5C 219.017,268.511 220.184,269.177 221,270.5C 223.157,272.817 224.657,275.484 225.5,278.5C 225.806,281.385 225.473,284.052 224.5,286.5C 224.789,283.351 224.289,280.351 223,277.5C 216.298,270.301 209.798,262.968 203.5,255.5 Z"/></g>
<g><path style="opacity:0.733" fill="#7d3926" d="M 87.5,255.5 C 88.8897,256.899 89.8897,258.566 90.5,260.5C 88.2407,259.656 87.2407,257.989 87.5,255.5 Z"/></g>
<g><path style="opacity:1" fill="#fc9738" d="M 188.5,243.5 C 190.167,244.167 191.833,244.833 193.5,245.5C 197.37,250.2 201.036,255.033 204.5,260C 203.978,260.561 203.645,261.228 203.5,262C 210.42,270.634 208.42,274.8 197.5,274.5C 197.5,273.5 197.5,272.5 197.5,271.5C 195.5,271.167 193.5,270.833 191.5,270.5C 185.133,264.333 178.8,258 172.5,251.5C 176.102,251.467 179.102,252.801 181.5,255.5C 182.841,251.616 183.675,247.616 184,243.5C 185.299,243.966 186.799,243.966 188.5,243.5 Z"/></g>
<g><path style="opacity:1" fill="#f6ba48" d="M 309.5,260.5 C 308.647,263.59 307.647,266.59 306.5,269.5C 306.5,270.5 306.5,271.5 306.5,272.5C 306.5,272.833 306.5,273.167 306.5,273.5C 303.438,274.268 301.772,276.268 301.5,279.5C 300.5,279.5 299.5,279.5 298.5,279.5C 298.586,277.323 299.253,275.323 300.5,273.5C 298.302,270.757 296.302,270.923 294.5,274C 294.934,276.93 293.601,279.097 290.5,280.5C 289.522,280.023 288.689,279.357 288,278.5C 286.713,281.145 284.547,282.145 281.5,281.5C 281.012,278.289 281.679,275.456 283.5,273C 279.189,274.811 274.522,275.978 269.5,276.5C 272.129,273.369 274.962,270.369 278,267.5C 278.791,266.255 279.291,264.922 279.5,263.5C 280.5,262.833 281.5,262.167 282.5,261.5C 286.631,260.544 289.797,258.211 292,254.5C 291.435,257.404 290.935,260.404 290.5,263.5C 294.692,262.3 299.692,261.3 305.5,260.5C 307.357,253.935 308.691,253.935 309.5,260.5 Z"/></g>
<g><path style="opacity:0.482" fill="#875c2d" d="M 177.5,264.5 C 176.167,263.5 174.833,262.5 173.5,261.5C 172.146,258.302 169.813,257.136 166.5,258C 158.61,265.061 150.943,272.228 143.5,279.5C 145.591,276.229 147.924,273.063 150.5,270C 155.983,265.094 161.649,260.428 167.5,256C 168.5,255.333 169.5,255.333 170.5,256C 173.447,258.436 175.78,261.269 177.5,264.5 Z"/></g>
<g><path style="opacity:1" fill="#d18e41" d="M 173.5,261.5 C 171.429,259.9 169.095,259.4 166.5,260C 158.978,266.524 151.811,273.357 145,280.5C 144.506,282.134 144.34,283.801 144.5,285.5C 143.549,284.081 143.216,282.415 143.5,280.5C 143.5,280.167 143.5,279.833 143.5,279.5C 150.943,272.228 158.61,265.061 166.5,258C 169.813,257.136 172.146,258.302 173.5,261.5 Z"/></g>
<g><path style="opacity:0.153" fill="#7f632f" d="M 313.5,260.5 C 312.172,265.165 309.839,269.165 306.5,272.5C 306.5,271.5 306.5,270.5 306.5,269.5C 309.075,266.681 311.408,263.681 313.5,260.5 Z"/></g>
<g><path style="opacity:0.992" fill="#b14f2f" d="M 93.5,266.5 C 96.9031,268.9 99.5698,271.9 101.5,275.5C 98.0969,273.1 95.4302,270.1 93.5,266.5 Z"/></g>
<g><path style="opacity:1" fill="#e3602f" d="M 83.5,253.5 C 84.6049,254.6 85.9382,255.267 87.5,255.5C 87.2407,257.989 88.2407,259.656 90.5,260.5C 90.0246,263.313 91.0246,265.313 93.5,266.5C 95.4302,270.1 98.0969,273.1 101.5,275.5C 105.817,278.486 109.817,281.82 113.5,285.5C 108.845,283.172 104.512,280.338 100.5,277C 99.1011,276.405 97.7678,276.572 96.5,277.5C 95.7579,275.892 95.5913,274.225 96,272.5C 95.6667,272.833 95.3333,273.167 95,273.5C 93.6932,272.228 92.1932,271.228 90.5,270.5C 89.7868,268.224 89.2868,265.891 89,263.5C 88.5831,262.244 87.7498,261.577 86.5,261.5C 84.7598,259.196 83.7598,256.529 83.5,253.5 Z"/></g>
<g><path style="opacity:0.992" fill="#d25d3b" d="M 60.5,264.5 C 63.1682,265.457 64.6682,267.457 65,270.5C 70.0969,277.049 74.9302,283.715 79.5,290.5C 74.8211,285.982 70.6545,280.982 67,275.5C 66.3292,274.748 65.4959,274.414 64.5,274.5C 64.1379,270.741 62.8046,267.407 60.5,264.5 Z"/></g>
<g><path style="opacity:1" fill="#f6a03a" d="M 173.5,261.5 C 174.833,262.5 176.167,263.5 177.5,264.5C 179.212,266.896 179.712,269.562 179,272.5C 176.167,274 174,276.167 172.5,279C 171.552,279.483 170.552,279.649 169.5,279.5C 168.745,282.512 167.412,285.178 165.5,287.5C 164.325,287.281 163.325,287.614 162.5,288.5C 158.352,294.022 153.352,294.856 147.5,291C 145.393,289.736 144.393,287.903 144.5,285.5C 144.34,283.801 144.506,282.134 145,280.5C 151.811,273.357 158.978,266.524 166.5,260C 169.095,259.4 171.429,259.9 173.5,261.5 Z"/></g>
<g><path style="opacity:0.267" fill="#684f28" d="M 295.5,225.5 C 295.5,226.833 295.5,228.167 295.5,229.5C 295.5,231.167 295.5,232.833 295.5,234.5C 294.542,234.953 293.708,235.619 293,236.5C 290.125,246.408 285.625,255.408 279.5,263.5C 273.031,270.801 266.031,277.635 258.5,284C 257.552,284.483 256.552,284.649 255.5,284.5C 275.977,269.687 289.311,250.021 295.5,225.5 Z"/></g>
<g><path style="opacity:1" fill="#f99d3d" d="M 193.5,245.5 C 197.167,248.5 200.5,251.833 203.5,255.5C 209.798,262.968 216.298,270.301 223,277.5C 224.289,280.351 224.789,283.351 224.5,286.5C 224.167,287.167 223.833,287.833 223.5,288.5C 221.319,288.284 219.653,289.117 218.5,291C 211.018,293.012 207.018,290.179 206.5,282.5C 202.094,282.069 199.094,279.736 197.5,275.5C 196.378,274.37 195.044,273.703 193.5,273.5C 192.449,272.778 191.782,271.778 191.5,270.5C 193.5,270.833 195.5,271.167 197.5,271.5C 197.5,272.5 197.5,273.5 197.5,274.5C 208.42,274.8 210.42,270.634 203.5,262C 203.645,261.228 203.978,260.561 204.5,260C 201.036,255.033 197.37,250.2 193.5,245.5 Z"/></g>
<g><path style="opacity:0.976" fill="#bf9245" d="M 279.5,263.5 C 279.291,264.922 278.791,266.255 278,267.5C 274.962,270.369 272.129,273.369 269.5,276.5C 265.865,279.659 262.198,282.826 258.5,286C 256.846,286.608 255.179,287.108 253.5,287.5C 254.167,286.5 254.833,285.5 255.5,284.5C 256.552,284.649 257.552,284.483 258.5,284C 266.031,277.635 273.031,270.801 279.5,263.5 Z"/></g>
<g><path style="opacity:0.114" fill="#836630" d="M 306.5,273.5 C 305.299,275.909 303.633,277.909 301.5,279.5C 301.772,276.268 303.438,274.268 306.5,273.5 Z"/></g>
<g><path style="opacity:0.212" fill="#723324" d="M 90.5,260.5 C 100.324,272.331 111.657,282.331 124.5,290.5C 123.833,290.5 123.167,290.5 122.5,290.5C 119.312,289.075 116.312,287.408 113.5,285.5C 109.817,281.82 105.817,278.486 101.5,275.5C 99.5698,271.9 96.9031,268.9 93.5,266.5C 91.0246,265.313 90.0246,263.313 90.5,260.5 Z"/></g>
<g><path style="opacity:0.275" fill="#895d35" d="M 177.5,264.5 C 181.278,266.714 182.112,269.714 180,273.5C 173.554,281.279 166.388,288.446 158.5,295C 146.864,296.529 141.864,291.696 143.5,280.5C 143.216,282.415 143.549,284.081 144.5,285.5C 144.393,287.903 145.393,289.736 147.5,291C 153.352,294.856 158.352,294.022 162.5,288.5C 163.325,287.614 164.325,287.281 165.5,287.5C 167.412,285.178 168.745,282.512 169.5,279.5C 170.552,279.649 171.552,279.483 172.5,279C 174,276.167 176.167,274 179,272.5C 179.712,269.562 179.212,266.896 177.5,264.5 Z"/></g>
<g><path style="opacity:1" fill="#fa672c" d="M 86.5,261.5 C 87.7498,261.577 88.5831,262.244 89,263.5C 89.2868,265.891 89.7868,268.224 90.5,270.5C 92.1932,271.228 93.6932,272.228 95,273.5C 95.3333,273.167 95.6667,272.833 96,272.5C 95.5913,274.225 95.7579,275.892 96.5,277.5C 97.7678,276.572 99.1011,276.405 100.5,277C 104.512,280.338 108.845,283.172 113.5,285.5C 115.16,288.466 117.493,290.8 120.5,292.5C 119.68,294.111 118.346,294.778 116.5,294.5C 116.047,297.652 117.047,300.152 119.5,302C 117.833,302.333 116.167,302.667 114.5,303C 117.3,304.485 119.966,306.151 122.5,308C 121.975,308.692 121.308,309.192 120.5,309.5C 116.561,307.048 112.727,306.715 109,308.5C 107.5,308 106,307.5 104.5,307C 102.353,303.253 99.0196,301.419 94.5,301.5C 93.7174,299.712 92.3841,298.712 90.5,298.5C 90.5,298.167 90.5,297.833 90.5,297.5C 92.1992,297.66 93.8659,297.494 95.5,297C 96.8213,295.455 96.4879,294.289 94.5,293.5C 90.6938,295.04 88.6938,293.707 88.5,289.5C 90.7224,289.178 92.5557,289.845 94,291.5C 94.6449,290.354 95.4783,289.354 96.5,288.5C 94.1668,286.296 93.8335,283.796 95.5,281C 93.5032,277.227 91.0032,276.727 88,279.5C 87.8324,276.823 86.999,274.49 85.5,272.5C 86.2485,271.469 86.9152,270.302 87.5,269C 86.7801,266.878 85.6134,266.378 84,267.5C 83.4553,264.923 84.2886,262.923 86.5,261.5 Z"/></g>
<g><path style="opacity:0.341" fill="#7c5235" d="M 192.5,275.5 C 193.167,275.5 193.833,275.5 194.5,275.5C 199.256,281.379 204.256,287.046 209.5,292.5C 208.761,292.631 208.094,292.464 207.5,292C 202.142,286.752 197.142,281.252 192.5,275.5 Z"/></g>
<g><path style="opacity:0.259" fill="#83572d" d="M 225.5,278.5 C 228.292,284.178 226.958,289.011 221.5,293C 217.278,295.13 213.278,294.964 209.5,292.5C 213.182,292.665 216.848,292.499 220.5,292C 221.71,290.961 222.71,289.794 223.5,288.5C 223.833,287.833 224.167,287.167 224.5,286.5C 225.473,284.052 225.806,281.385 225.5,278.5 Z"/></g>
<g><path style="opacity:0.039" fill="#783629" d="M 64.5,274.5 C 65.4959,274.414 66.3292,274.748 67,275.5C 70.6545,280.982 74.8211,285.982 79.5,290.5C 81.8333,293.167 84.1667,295.833 86.5,298.5C 77.4308,292.097 70.0975,284.097 64.5,274.5 Z"/></g>
<g><path style="opacity:1" fill="#e0954f" d="M 193.5,273.5 C 195.044,273.703 196.378,274.37 197.5,275.5C 199.094,279.736 202.094,282.069 206.5,282.5C 207.018,290.179 211.018,293.012 218.5,291C 219.653,289.117 221.319,288.284 223.5,288.5C 222.71,289.794 221.71,290.961 220.5,292C 216.848,292.499 213.182,292.665 209.5,292.5C 204.256,287.046 199.256,281.379 194.5,275.5C 194.167,274.833 193.833,274.167 193.5,273.5 Z"/></g>
<g><path style="opacity:0.82" fill="#916e37" d="M 255.5,284.5 C 254.833,285.5 254.167,286.5 253.5,287.5C 253.047,288.458 252.381,289.292 251.5,290C 242.712,294.623 234.045,299.457 225.5,304.5C 225.5,303.833 225.5,303.167 225.5,302.5C 227.647,300.53 229.98,298.697 232.5,297C 240.509,293.331 248.175,289.165 255.5,284.5 Z"/></g>
<g><path style="opacity:0.655" fill="#914928" d="M 122.5,290.5 C 123.167,290.5 123.833,290.5 124.5,290.5C 136.07,295.9 146.737,302.733 156.5,311C 157.823,311.816 158.489,312.983 158.5,314.5C 154.442,311.11 150.109,308.11 145.5,305.5C 141.777,302.449 137.777,299.782 133.5,297.5C 129.543,295.527 125.876,293.194 122.5,290.5 Z"/></g>
<g><path style="opacity:1" fill="#f8b345" d="M 298.5,281.5 C 296.72,284.29 294.387,286.29 291.5,287.5C 291.649,288.552 291.483,289.552 291,290.5C 284.489,296.64 277.989,302.64 271.5,308.5C 268.066,308.934 265.399,310.6 263.5,313.5C 257.427,313.285 252.76,315.619 249.5,320.5C 245.908,320.698 242.574,321.698 239.5,323.5C 234.616,323.104 234.282,321.604 238.5,319C 243.524,318.999 247.857,317.333 251.5,314C 250.584,313.626 249.75,313.126 249,312.5C 245.835,313.792 242.668,313.792 239.5,312.5C 239.5,311.5 239.5,310.5 239.5,309.5C 244.422,309.928 248.922,309.928 253,309.5C 255.44,307.726 257.106,305.392 258,302.5C 258.333,303.5 258.667,304.5 259,305.5C 260.008,305.018 261.175,304.852 262.5,305C 262.833,304.667 263.167,304.333 263.5,304C 262.24,302.887 261.073,302.72 260,303.5C 259.355,302.354 258.522,301.354 257.5,300.5C 260.612,296.552 264.445,293.552 269,291.5C 270.548,292.684 272.048,292.517 273.5,291C 274.904,285.558 277.404,285.058 281,289.5C 283.552,286.806 284.719,287.473 284.5,291.5C 285.5,291.5 286.5,291.5 287.5,291.5C 288.167,289.167 288.833,286.833 289.5,284.5C 292.817,284.336 295.817,283.336 298.5,281.5 Z"/></g>
<g><path style="opacity:1" fill="#f9b541" d="M 298.5,279.5 C 298.5,280.167 298.5,280.833 298.5,281.5C 295.817,283.336 292.817,284.336 289.5,284.5C 288.833,286.833 288.167,289.167 287.5,291.5C 286.5,291.5 285.5,291.5 284.5,291.5C 284.719,287.473 283.552,286.806 281,289.5C 277.404,285.058 274.904,285.558 273.5,291C 272.048,292.517 270.548,292.684 269,291.5C 264.445,293.552 260.612,296.552 257.5,300.5C 258.522,301.354 259.355,302.354 260,303.5C 261.073,302.72 262.24,302.887 263.5,304C 263.167,304.333 262.833,304.667 262.5,305C 261.175,304.852 260.008,305.018 259,305.5C 258.667,304.5 258.333,303.5 258,302.5C 257.106,305.392 255.44,307.726 253,309.5C 248.922,309.928 244.422,309.928 239.5,309.5C 239.5,310.5 239.5,311.5 239.5,312.5C 235.64,312.701 233.806,311.035 234,307.5C 235.011,306.663 236.178,306.33 237.5,306.5C 237.108,301.73 235.108,300.73 231.5,303.5C 230.96,304.748 230.293,305.915 229.5,307C 226.247,307.201 223.247,308.034 220.5,309.5C 221.833,307.833 223.167,306.167 224.5,304.5C 224.833,304.5 225.167,304.5 225.5,304.5C 234.045,299.457 242.712,294.623 251.5,290C 252.381,289.292 253.047,288.458 253.5,287.5C 255.179,287.108 256.846,286.608 258.5,286C 262.198,282.826 265.865,279.659 269.5,276.5C 274.522,275.978 279.189,274.811 283.5,273C 281.679,275.456 281.012,278.289 281.5,281.5C 284.547,282.145 286.713,281.145 288,278.5C 288.689,279.357 289.522,280.023 290.5,280.5C 293.601,279.097 294.934,276.93 294.5,274C 296.302,270.923 298.302,270.757 300.5,273.5C 299.253,275.323 298.586,277.323 298.5,279.5 Z"/></g>
<g><path style="opacity:0.227" fill="#896933" d="M 298.5,279.5 C 299.5,279.5 300.5,279.5 301.5,279.5C 293.717,291.404 283.717,301.071 271.5,308.5C 277.989,302.64 284.489,296.64 291,290.5C 291.483,289.552 291.649,288.552 291.5,287.5C 294.387,286.29 296.72,284.29 298.5,281.5C 298.5,280.833 298.5,280.167 298.5,279.5 Z"/></g>
<g><path style="opacity:1" fill="#fb7c2f" d="M 133.5,297.5 C 137.777,299.782 141.777,302.449 145.5,305.5C 148.391,307.884 151.224,310.551 154,313.5C 155.806,317.72 156.806,322.053 157,326.5C 156.282,325.549 155.449,325.383 154.5,326C 154.167,327 153.833,328 153.5,329C 152.551,329.617 151.718,329.451 151,328.5C 149.695,331.961 147.529,334.628 144.5,336.5C 142.074,332.238 138.74,328.738 134.5,326C 133.207,325.51 131.873,325.343 130.5,325.5C 129.864,323.205 128.531,321.539 126.5,320.5C 128.262,320.357 129.929,320.691 131.5,321.5C 132.764,319.709 133.431,317.709 133.5,315.5C 132.501,312.472 131.834,309.639 131.5,307C 132.833,306.333 134.167,305.667 135.5,305C 128.54,303.644 128.206,302.477 134.5,301.5C 134.567,300.041 134.234,298.708 133.5,297.5 Z"/></g>
<g><path style="opacity:0.976" fill="#bf9048" d="M 224.5,304.5 C 223.167,306.167 221.833,307.833 220.5,309.5C 216.227,312.434 212.227,315.767 208.5,319.5C 212.548,313.118 217.882,308.118 224.5,304.5 Z"/></g>
<g><path style="opacity:0.784" fill="#a55136" d="M 79.5,290.5 C 83.1667,293.167 86.8333,295.833 90.5,298.5C 101.046,307.794 113.046,315.127 126.5,320.5C 128.531,321.539 129.864,323.205 130.5,325.5C 119.061,319.612 107.728,313.446 96.5,307C 92.9095,304.386 89.5762,301.552 86.5,298.5C 84.1667,295.833 81.8333,293.167 79.5,290.5 Z"/></g>
<g><path style="opacity:1" fill="#fa7232" d="M 113.5,285.5 C 116.312,287.408 119.312,289.075 122.5,290.5C 125.876,293.194 129.543,295.527 133.5,297.5C 134.234,298.708 134.567,300.041 134.5,301.5C 128.206,302.477 128.54,303.644 135.5,305C 134.167,305.667 132.833,306.333 131.5,307C 131.834,309.639 132.501,312.472 133.5,315.5C 133.431,317.709 132.764,319.709 131.5,321.5C 129.929,320.691 128.262,320.357 126.5,320.5C 113.046,315.127 101.046,307.794 90.5,298.5C 92.3841,298.712 93.7174,299.712 94.5,301.5C 99.0196,301.419 102.353,303.253 104.5,307C 106,307.5 107.5,308 109,308.5C 112.727,306.715 116.561,307.048 120.5,309.5C 121.308,309.192 121.975,308.692 122.5,308C 119.966,306.151 117.3,304.485 114.5,303C 116.167,302.667 117.833,302.333 119.5,302C 117.047,300.152 116.047,297.652 116.5,294.5C 118.346,294.778 119.68,294.111 120.5,292.5C 117.493,290.8 115.16,288.466 113.5,285.5 Z"/></g>
<g><path style="opacity:0.345" fill="#84632e" d="M 271.5,308.5 C 269.371,310.95 266.704,312.617 263.5,313.5C 265.399,310.6 268.066,308.934 271.5,308.5 Z"/></g>
<g><path style="opacity:0.91" fill="#a57e40" d="M 263.5,313.5 C 259.151,316.341 254.484,318.674 249.5,320.5C 252.76,315.619 257.427,313.285 263.5,313.5 Z"/></g>
<g><path style="opacity:0.341" fill="#7b3e25" d="M 158.5,314.5 C 160.587,315.585 161.92,317.251 162.5,319.5C 160.413,318.415 159.08,316.749 158.5,314.5 Z"/></g>
<g><path style="opacity:0.325" fill="#694c21" d="M 225.5,302.5 C 225.5,303.167 225.5,303.833 225.5,304.5C 225.167,304.5 224.833,304.5 224.5,304.5C 217.882,308.118 212.548,313.118 208.5,319.5C 206.549,320.716 205.049,322.382 204,324.5C 202.648,328.538 200.814,332.205 198.5,335.5C 202.739,320.595 211.739,309.595 225.5,302.5 Z"/></g>
<g><path style="opacity:0.773" fill="#a67c40" d="M 249.5,320.5 C 243.856,323.66 238.523,327.327 233.5,331.5C 234.974,328.751 236.974,326.418 239.5,324.5C 239.5,324.167 239.5,323.833 239.5,323.5C 242.574,321.698 245.908,320.698 249.5,320.5 Z"/></g>
<g><path style="opacity:1" fill="#f9b23e" d="M 239.5,312.5 C 242.668,313.792 245.835,313.792 249,312.5C 249.75,313.126 250.584,313.626 251.5,314C 247.857,317.333 243.524,318.999 238.5,319C 234.282,321.604 234.616,323.104 239.5,323.5C 239.5,323.833 239.5,324.167 239.5,324.5C 234.267,325.783 229.601,328.116 225.5,331.5C 223.7,329.172 222.533,326.505 222,323.5C 220.796,324.859 219.296,325.859 217.5,326.5C 219.807,328.328 219.474,329.994 216.5,331.5C 215.833,330.833 215.167,330.167 214.5,329.5C 212.477,331.173 210.144,331.84 207.5,331.5C 207.579,330.07 207.246,328.736 206.5,327.5C 208.422,326.289 210.255,324.956 212,323.5C 212.333,324.167 212.667,324.833 213,325.5C 213.333,322.5 213.667,319.5 214,316.5C 216.372,314.297 218.539,311.963 220.5,309.5C 223.247,308.034 226.247,307.201 229.5,307C 230.293,305.915 230.96,304.748 231.5,303.5C 235.108,300.73 237.108,301.73 237.5,306.5C 236.178,306.33 235.011,306.663 234,307.5C 233.806,311.035 235.64,312.701 239.5,312.5 Z"/></g>
<g><path style="opacity:0.671" fill="#8a4f28" d="M 162.5,319.5 C 166.455,323.74 169.122,328.74 170.5,334.5C 170.5,334.833 170.5,335.167 170.5,335.5C 169.167,333.5 167.833,331.5 166.5,329.5C 166.114,327.063 164.947,325.063 163,323.5C 162.51,322.207 162.343,320.873 162.5,319.5 Z"/></g>
<g><path style="opacity:1" fill="#f9b243" d="M 220.5,309.5 C 218.539,311.963 216.372,314.297 214,316.5C 213.667,319.5 213.333,322.5 213,325.5C 212.667,324.833 212.333,324.167 212,323.5C 210.255,324.956 208.422,326.289 206.5,327.5C 207.246,328.736 207.579,330.07 207.5,331.5C 210.144,331.84 212.477,331.173 214.5,329.5C 215.167,330.167 215.833,330.833 216.5,331.5C 219.474,329.994 219.807,328.328 217.5,326.5C 219.296,325.859 220.796,324.859 222,323.5C 222.533,326.505 223.7,329.172 225.5,331.5C 223.5,331.5 221.5,331.5 219.5,331.5C 219.649,332.552 219.483,333.552 219,334.5C 216.667,335.5 215,337.167 214,339.5C 213.702,344.974 212.702,350.307 211,355.5C 210.667,355.167 210.333,354.833 210,354.5C 209.365,355.966 208.531,357.3 207.5,358.5C 208.599,361.69 209.932,364.69 211.5,367.5C 212.822,367.67 213.989,367.337 215,366.5C 215.333,362.5 215.667,358.5 216,354.5C 217.114,356.97 217.614,359.636 217.5,362.5C 217.954,370.771 214.954,372.438 208.5,367.5C 207.386,368.723 207.219,370.056 208,371.5C 210.326,372.713 210.659,374.046 209,375.5C 207.7,374.293 206.2,373.626 204.5,373.5C 203.432,372.566 202.099,372.232 200.5,372.5C 199.399,361.2 199.233,349.867 200,338.5C 201.933,333.434 204.433,328.767 207.5,324.5C 208.452,322.955 208.785,321.288 208.5,319.5C 212.227,315.767 216.227,312.434 220.5,309.5 Z"/></g>
<g><path style="opacity:1" fill="#fab143" d="M 239.5,324.5 C 236.974,326.418 234.974,328.751 233.5,331.5C 230.613,332.71 228.28,334.71 226.5,337.5C 225.533,338.806 224.199,339.473 222.5,339.5C 221.031,350.436 219.865,361.436 219,372.5C 216.061,377.186 211.894,379.019 206.5,378C 204.963,376.89 204.297,375.39 204.5,373.5C 206.2,373.626 207.7,374.293 209,375.5C 210.659,374.046 210.326,372.713 208,371.5C 207.219,370.056 207.386,368.723 208.5,367.5C 214.954,372.438 217.954,370.771 217.5,362.5C 217.614,359.636 217.114,356.97 216,354.5C 215.667,358.5 215.333,362.5 215,366.5C 213.989,367.337 212.822,367.67 211.5,367.5C 209.932,364.69 208.599,361.69 207.5,358.5C 208.531,357.3 209.365,355.966 210,354.5C 210.333,354.833 210.667,355.167 211,355.5C 212.702,350.307 213.702,344.974 214,339.5C 215,337.167 216.667,335.5 219,334.5C 219.483,333.552 219.649,332.552 219.5,331.5C 221.5,331.5 223.5,331.5 225.5,331.5C 229.601,328.116 234.267,325.783 239.5,324.5 Z"/></g>
<g><path style="opacity:1" fill="#f68833" d="M 145.5,305.5 C 150.109,308.11 154.442,311.11 158.5,314.5C 159.08,316.749 160.413,318.415 162.5,319.5C 162.343,320.873 162.51,322.207 163,323.5C 164.947,325.063 166.114,327.063 166.5,329.5C 166.517,331.565 166.85,333.565 167.5,335.5C 168.096,340.551 168.096,345.551 167.5,350.5C 166.256,347.897 164.589,345.564 162.5,343.5C 162.179,333.87 160.012,333.203 156,341.5C 154.333,338.833 152.667,336.167 151,333.5C 150.141,336.659 148.975,339.659 147.5,342.5C 148.974,351.415 149.974,360.415 150.5,369.5C 151.086,369.709 151.586,370.043 152,370.5C 152.415,368.709 153.415,367.376 155,366.5C 156,368.833 157.667,370.5 160,371.5C 160.915,370.672 161.581,369.672 162,368.5C 162.417,371.284 161.25,373.284 158.5,374.5C 159.85,375.95 161.516,376.617 163.5,376.5C 160.375,377.479 157.042,377.813 153.5,377.5C 149.588,376.256 147.588,373.589 147.5,369.5C 147.666,361.16 147.5,352.827 147,344.5C 144.797,342.331 143.964,339.665 144.5,336.5C 147.529,334.628 149.695,331.961 151,328.5C 151.718,329.451 152.551,329.617 153.5,329C 153.833,328 154.167,327 154.5,326C 155.449,325.383 156.282,325.549 157,326.5C 156.806,322.053 155.806,317.72 154,313.5C 151.224,310.551 148.391,307.884 145.5,305.5 Z"/></g>
<g><path style="opacity:0.035" fill="#5e3c1c" d="M 170.5,334.5 C 171.856,337.577 172.689,340.91 173,344.5C 173.824,353.343 173.657,362.01 172.5,370.5C 172.826,361.983 172.493,353.65 171.5,345.5C 171.384,342.14 171.051,338.807 170.5,335.5C 170.5,335.167 170.5,334.833 170.5,334.5 Z"/></g>
<g><path style="opacity:1" fill="#e1873d" d="M 166.5,329.5 C 167.833,331.5 169.167,333.5 170.5,335.5C 171.051,338.807 171.384,342.14 171.5,345.5C 171.832,354.857 171.498,364.19 170.5,373.5C 168.611,375.432 166.611,377.265 164.5,379C 161.167,379.667 157.833,379.667 154.5,379C 153.944,378.617 153.611,378.117 153.5,377.5C 157.042,377.813 160.375,377.479 163.5,376.5C 165.973,376.264 167.64,374.931 168.5,372.5C 168.833,367.333 169.167,362.167 169.5,357C 169.706,349.598 169.039,342.432 167.5,335.5C 166.85,333.565 166.517,331.565 166.5,329.5 Z"/></g>
<g><path style="opacity:1" fill="#f98f32" d="M 167.5,335.5 C 169.039,342.432 169.706,349.598 169.5,357C 169.167,362.167 168.833,367.333 168.5,372.5C 167.64,374.931 165.973,376.264 163.5,376.5C 161.516,376.617 159.85,375.95 158.5,374.5C 161.25,373.284 162.417,371.284 162,368.5C 161.581,369.672 160.915,370.672 160,371.5C 157.667,370.5 156,368.833 155,366.5C 153.415,367.376 152.415,368.709 152,370.5C 151.586,370.043 151.086,369.709 150.5,369.5C 149.974,360.415 148.974,351.415 147.5,342.5C 148.975,339.659 150.141,336.659 151,333.5C 152.667,336.167 154.333,338.833 156,341.5C 160.012,333.203 162.179,333.87 162.5,343.5C 164.589,345.564 166.256,347.897 167.5,350.5C 168.096,345.551 168.096,340.551 167.5,335.5 Z"/></g>
<g><path style="opacity:0.294" fill="#704b25" d="M 198.5,336.5 C 197.531,348.152 197.365,359.819 198,371.5C 199.596,374.369 201.43,377.036 203.5,379.5C 200.178,378.342 198.012,376.008 197,372.5C 196.333,361.833 196.333,351.167 197,340.5C 197.21,338.942 197.71,337.609 198.5,336.5 Z"/></g>
<g><path style="opacity:0.551" fill="#ac6335" d="M 130.5,325.5 C 131.873,325.343 133.207,325.51 134.5,326C 138.74,328.738 142.074,332.238 144.5,336.5C 143.964,339.665 144.797,342.331 147,344.5C 147.5,352.827 147.666,361.16 147.5,369.5C 146.671,361.677 146.171,353.677 146,345.5C 145.617,344.944 145.117,344.611 144.5,344.5C 141.556,336.965 136.889,330.632 130.5,325.5 Z"/></g>
<g><path style="opacity:1" fill="#de9f49" d="M 208.5,319.5 C 208.785,321.288 208.452,322.955 207.5,324.5C 204.433,328.767 201.933,333.434 200,338.5C 199.233,349.867 199.399,361.2 200.5,372.5C 202.099,372.232 203.432,372.566 204.5,373.5C 204.297,375.39 204.963,376.89 206.5,378C 211.894,379.019 216.061,377.186 219,372.5C 219.865,361.436 221.031,350.436 222.5,339.5C 224.199,339.473 225.533,338.806 226.5,337.5C 224.469,341.913 223.302,346.58 223,351.5C 222.732,359.2 222.232,366.867 221.5,374.5C 218.739,376.077 216.073,377.91 213.5,380C 210.151,380.388 206.817,380.221 203.5,379.5C 201.43,377.036 199.596,374.369 198,371.5C 197.365,359.819 197.531,348.152 198.5,336.5C 198.5,336.167 198.5,335.833 198.5,335.5C 200.814,332.205 202.648,328.538 204,324.5C 205.049,322.382 206.549,320.716 208.5,319.5 Z"/></g>
<g><path style="opacity:0.514" fill="#886331" d="M 233.5,331.5 C 229.964,335.21 227.464,339.544 226,344.5C 224.785,353.44 224.118,362.44 224,371.5C 219.644,381.453 212.81,384.119 203.5,379.5C 206.817,380.221 210.151,380.388 213.5,380C 216.073,377.91 218.739,376.077 221.5,374.5C 222.232,366.867 222.732,359.2 223,351.5C 223.302,346.58 224.469,341.913 226.5,337.5C 228.28,334.71 230.613,332.71 233.5,331.5 Z"/></g>
<g><path style="opacity:0.471" fill="#85502d" d="M 144.5,344.5 C 145.117,344.611 145.617,344.944 146,345.5C 146.171,353.677 146.671,361.677 147.5,369.5C 147.588,373.589 149.588,376.256 153.5,377.5C 153.611,378.117 153.944,378.617 154.5,379C 157.833,379.667 161.167,379.667 164.5,379C 166.611,377.265 168.611,375.432 170.5,373.5C 171.498,364.19 171.832,354.857 171.5,345.5C 172.493,353.65 172.826,361.983 172.5,370.5C 171.361,378.024 166.861,382.024 159,382.5C 152.229,381.627 147.895,377.96 146,371.5C 145.716,362.475 145.216,353.475 144.5,344.5 Z"/></g>
</svg>
