<?xml version="1.0" encoding="UTF-8"?>
<!DOCTYPE svg PUBLIC "-//W3C//DTD SVG 1.1//EN" "http://www.w3.org/Graphics/SVG/1.1/DTD/svg11.dtd">
<svg xmlns="http://www.w3.org/2000/svg" version="1.1" width="225px" height="225px" style="shape-rendering:geometricPrecision; text-rendering:geometricPrecision; image-rendering:optimizeQuality; fill-rule:evenodd; clip-rule:evenodd" xmlns:xlink="http://www.w3.org/1999/xlink">
<g><path style="opacity:1" fill="#fefefe" d="M -0.5,-0.5 C 74.5,-0.5 149.5,-0.5 224.5,-0.5C 224.5,74.5 224.5,149.5 224.5,224.5C 149.5,224.5 74.5,224.5 -0.5,224.5C -0.5,149.5 -0.5,74.5 -0.5,-0.5 Z"/></g>
<g><path style="opacity:1" fill="#d16179" d="M 109.5,58.5 C 119.977,57.3094 125.644,61.9761 126.5,72.5C 134.263,77.7028 141.597,83.3695 148.5,89.5C 148.5,90.1667 148.5,90.8333 148.5,91.5C 141.119,85.7208 133.619,80.0541 126,74.5C 124.615,78.3125 122.115,80.9792 118.5,82.5C 117.512,81.205 116.512,79.8717 115.5,78.5C 122.116,73.6129 122.116,68.7796 115.5,64C 113.527,63.5045 111.527,63.3379 109.5,63.5C 109.918,62.7784 110.584,62.2784 111.5,62C 110.177,61.1841 109.511,60.0174 109.5,58.5 Z"/></g>
<g><path style="opacity:1" fill="#fdfafb" d="M 109.5,63.5 C 111.527,63.3379 113.527,63.5045 115.5,64C 122.116,68.7796 122.116,73.6129 115.5,78.5C 107.225,79.2936 104.058,75.627 106,67.5C 107.376,66.2949 108.542,64.9616 109.5,63.5 Z"/></g>
<g><path style="opacity:1" fill="#c06899" d="M 109.5,58.5 C 109.511,60.0174 110.177,61.1841 111.5,62C 110.584,62.2784 109.918,62.7784 109.5,63.5C 108.542,64.9616 107.376,66.2949 106,67.5C 104.058,75.627 107.225,79.2936 115.5,78.5C 116.512,79.8717 117.512,81.205 118.5,82.5C 110.501,85.7741 104.335,83.4407 100,75.5C 98.9609,76.7101 97.7942,77.7101 96.5,78.5C 96.5,77.8333 96.1667,77.5 95.5,77.5C 98.1287,74.5594 97.462,73.8927 93.5,75.5C 92.791,74.596 91.791,74.2627 90.5,74.5C 93.2154,72.9281 96.2154,71.9281 99.5,71.5C 99.8462,64.8255 103.18,60.4922 109.5,58.5 Z"/></g>
<g><path style="opacity:1" fill="#fbf9fd" d="M 95.5,77.5 C 90.5279,82.8071 85.5279,88.1405 80.5,93.5C 78.8545,95.8122 76.8545,97.8122 74.5,99.5C 71.5504,98.2946 68.5504,97.2946 65.5,96.5C 61.256,94.7186 56.9227,92.8853 52.5,91C 53.056,90.6174 53.3893,90.1174 53.5,89.5C 62.1667,86.5 70.8333,83.5 79.5,80.5C 84.1618,78.8348 88.8285,77.1682 93.5,75.5C 97.462,73.8927 98.1287,74.5594 95.5,77.5 Z"/></g>
<g><path style="opacity:1" fill="#fefcfd" d="M 148.5,91.5 C 155.989,97.4106 163.655,103.077 171.5,108.5C 156.342,109.496 141.009,109.83 125.5,109.5C 124.944,103.775 121.944,99.9416 116.5,98C 113.961,97.2042 111.628,97.3709 109.5,98.5C 104.549,100.452 100.883,103.785 98.5,108.5C 94.9205,106.875 91.2538,105.541 87.5,104.5C 83.9522,103.484 80.6188,101.984 77.5,100C 79.0414,98.6288 80.3747,97.1288 81.5,95.5C 86.8431,90.1557 91.8431,84.489 96.5,78.5C 97.7942,77.7101 98.9609,76.7101 100,75.5C 104.335,83.4407 110.501,85.7741 118.5,82.5C 122.115,80.9792 124.615,78.3125 126,74.5C 133.619,80.0541 141.119,85.7208 148.5,91.5 Z"/></g>
<g><path style="opacity:1" fill="#ae6fba" d="M 90.5,74.5 C 91.791,74.2627 92.791,74.596 93.5,75.5C 88.8285,77.1682 84.1618,78.8348 79.5,80.5C 78.791,79.596 77.791,79.2627 76.5,79.5C 80.9399,77.4624 85.6066,75.7958 90.5,74.5 Z"/></g>
<g><path style="opacity:1" fill="#827ed8" d="M 50.5,88.5 C 51.209,89.404 52.209,89.7373 53.5,89.5C 53.3893,90.1174 53.056,90.6174 52.5,91C 56.9227,92.8853 61.256,94.7186 65.5,96.5C 64.8333,96.5 64.5,96.8333 64.5,97.5C 60.09,96.2751 55.7567,95.1085 51.5,94C 56.0277,99.8615 61.0277,104.861 66.5,109C 68.0375,107.293 69.7041,105.793 71.5,104.5C 71.5,105.167 71.8333,105.5 72.5,105.5C 70.8564,107.481 69.1897,109.481 67.5,111.5C 69.69,113.856 71.69,116.356 73.5,119C 74.448,119.483 75.448,119.649 76.5,119.5C 75.0998,120.1 74.0998,121.1 73.5,122.5C 70.9933,123.892 68.3267,124.892 65.5,125.5C 64.5084,125.672 63.8417,125.338 63.5,124.5C 66.5107,123.439 69.5107,122.273 72.5,121C 70.689,118.022 68.3557,115.522 65.5,113.5C 63.812,114.521 62.4787,115.855 61.5,117.5C 60.8333,117.5 60.1667,117.5 59.5,117.5C 60.8231,115.529 62.1565,113.529 63.5,111.5C 59.1878,106.02 54.6878,100.687 50,95.5C 49.34,97.3237 48.1733,98.657 46.5,99.5C 46.5,97.5 45.5,96.5 43.5,96.5C 47.1271,90.5552 45.7937,86.2218 39.5,83.5C 38.0028,82.6942 36.3361,82.0276 34.5,81.5C 33.6143,80.675 33.281,79.675 33.5,78.5C 42.248,76.3795 47.9147,79.7128 50.5,88.5 Z"/></g>
<g><path style="opacity:1" fill="#9b76d8" d="M 76.5,79.5 C 77.791,79.2627 78.791,79.596 79.5,80.5C 70.8333,83.5 62.1667,86.5 53.5,89.5C 52.209,89.7373 51.209,89.404 50.5,88.5C 59.0168,85.1054 67.6834,82.1054 76.5,79.5 Z"/></g>
<g><path style="opacity:1" fill="#fafbfd" d="M 39.5,83.5 C 45.7937,86.2218 47.1271,90.5552 43.5,96.5C 33.944,100.12 29.7774,96.7867 31,86.5C 33.1962,83.8748 36.0295,82.8748 39.5,83.5 Z"/></g>
<g><path style="opacity:1" fill="#6f8ec6" d="M 33.5,78.5 C 33.281,79.675 33.6143,80.675 34.5,81.5C 36.3361,82.0276 38.0028,82.6942 39.5,83.5C 36.0295,82.8748 33.1962,83.8748 31,86.5C 29.7774,96.7867 33.944,100.12 43.5,96.5C 45.5,96.5 46.5,97.5 46.5,99.5C 44.299,102.355 41.299,103.689 37.5,103.5C 27.5102,102.205 23.3435,96.5385 25,86.5C 26.4129,82.2518 29.2462,79.5852 33.5,78.5 Z"/></g>
<g><path style="opacity:1" fill="#a96fc1" d="M 95.5,77.5 C 96.1667,77.5 96.5,77.8333 96.5,78.5C 91.8431,84.489 86.8431,90.1557 81.5,95.5C 81.6716,94.5084 81.3382,93.8417 80.5,93.5C 85.5279,88.1405 90.5279,82.8071 95.5,77.5 Z"/></g>
<g><path style="opacity:1" fill="#f8f7fd" d="M 64.5,97.5 C 66.6502,98.6701 68.9836,99.6701 71.5,100.5C 72.2916,101.7 72.2916,103.033 71.5,104.5C 69.7041,105.793 68.0375,107.293 66.5,109C 61.0277,104.861 56.0277,99.8615 51.5,94C 55.7567,95.1085 60.09,96.2751 64.5,97.5 Z"/></g>
<g><path style="opacity:1" fill="#b768a6" d="M 109.5,98.5 C 111.628,97.3709 113.961,97.2042 116.5,98C 121.944,99.9416 124.944,103.775 125.5,109.5C 127.607,110.468 129.941,110.802 132.5,110.5C 132.5,110.833 132.5,111.167 132.5,111.5C 129.941,111.198 127.607,111.532 125.5,112.5C 125.057,118.275 122.057,121.942 116.5,123.5C 116.489,121.983 115.823,120.816 114.5,120C 115.167,119.667 115.833,119.333 116.5,119C 116.272,118.601 115.938,118.435 115.5,118.5C 121.599,114.072 121.932,109.239 116.5,104C 114.866,103.506 113.199,103.34 111.5,103.5C 111.918,102.778 112.584,102.278 113.5,102C 112.468,100.373 111.134,99.2066 109.5,98.5 Z"/></g>
<g><path style="opacity:1" fill="#e86c53" d="M 193.5,121.5 C 192.026,120.564 191.026,119.23 190.5,117.5C 195.345,113.753 195.679,109.586 191.5,105C 184.41,101.878 180.076,104.045 178.5,111.5C 177.698,110.048 177.198,108.382 177,106.5C 176.329,105.748 175.496,105.414 174.5,105.5C 183.193,94.6478 191.36,94.9812 199,106.5C 200.587,112.918 198.754,117.918 193.5,121.5 Z"/></g>
<g><path style="opacity:1" fill="#fcfbfd" d="M 85.5,105.5 C 89.6102,107.601 93.9435,109.434 98.5,111C 95.6907,112.093 93.024,113.26 90.5,114.5C 85.8285,116.168 81.1618,117.835 76.5,119.5C 75.448,119.649 74.448,119.483 73.5,119C 71.69,116.356 69.69,113.856 67.5,111.5C 69.1897,109.481 70.8564,107.481 72.5,105.5C 73.2495,103.754 74.5828,102.754 76.5,102.5C 79.4441,103.704 82.4441,104.704 85.5,105.5 Z"/></g>
<g><path style="opacity:1" fill="#946fde" d="M 80.5,93.5 C 81.3382,93.8417 81.6716,94.5084 81.5,95.5C 80.3747,97.1288 79.0414,98.6288 77.5,100C 80.6188,101.984 83.9522,103.484 87.5,104.5C 87.1583,105.338 86.4916,105.672 85.5,105.5C 82.4441,104.704 79.4441,103.704 76.5,102.5C 74.5828,102.754 73.2495,103.754 72.5,105.5C 71.8333,105.5 71.5,105.167 71.5,104.5C 72.2916,103.033 72.2916,101.7 71.5,100.5C 68.9836,99.6701 66.6502,98.6701 64.5,97.5C 64.5,96.8333 64.8333,96.5 65.5,96.5C 68.5504,97.2946 71.5504,98.2946 74.5,99.5C 76.8545,97.8122 78.8545,95.8122 80.5,93.5 Z"/></g>
<g><path style="opacity:1" fill="#fcfafc" d="M 111.5,103.5 C 113.199,103.34 114.866,103.506 116.5,104C 121.932,109.239 121.599,114.072 115.5,118.5C 105.953,118.115 103.286,113.615 107.5,105C 108.745,104.209 110.078,103.709 111.5,103.5 Z"/></g>
<g><path style="opacity:1" fill="#fdf7f7" d="M 190.5,117.5 C 184.37,119.768 180.37,117.768 178.5,111.5C 180.076,104.045 184.41,101.878 191.5,105C 195.679,109.586 195.345,113.753 190.5,117.5 Z"/></g>
<g><path style="opacity:1" fill="#a66ec4" d="M 109.5,98.5 C 111.134,99.2066 112.468,100.373 113.5,102C 112.584,102.278 111.918,102.778 111.5,103.5C 110.078,103.709 108.745,104.209 107.5,105C 103.286,113.615 105.953,118.115 115.5,118.5C 115.938,118.435 116.272,118.601 116.5,119C 115.833,119.333 115.167,119.667 114.5,120C 115.823,120.816 116.489,121.983 116.5,123.5C 107.85,125.186 102.516,121.853 100.5,113.5C 97.779,113.963 95.1123,114.629 92.5,115.5C 92.1583,114.662 91.4916,114.328 90.5,114.5C 93.024,113.26 95.6907,112.093 98.5,111C 93.9435,109.434 89.6102,107.601 85.5,105.5C 86.4916,105.672 87.1583,105.338 87.5,104.5C 91.2538,105.541 94.9205,106.875 98.5,108.5C 100.883,103.785 104.549,100.452 109.5,98.5 Z"/></g>
<g><path style="opacity:1" fill="#dd5d5e" d="M 148.5,89.5 C 156.622,95.1153 164.622,100.949 172.5,107C 173.816,107.528 174.483,107.028 174.5,105.5C 175.496,105.414 176.329,105.748 177,106.5C 177.198,108.382 177.698,110.048 178.5,111.5C 180.37,117.768 184.37,119.768 190.5,117.5C 191.026,119.23 192.026,120.564 193.5,121.5C 185.55,125.496 179.217,123.663 174.5,116C 172.934,115.7 171.601,116.2 170.5,117.5C 169.508,117.672 168.842,117.338 168.5,116.5C 169.833,115.5 171.167,114.5 172.5,113.5C 173.043,113.44 173.376,113.107 173.5,112.5C 159.85,111.501 146.183,111.167 132.5,111.5C 132.5,111.167 132.5,110.833 132.5,110.5C 145.85,110.833 159.183,110.499 172.5,109.5C 172.376,108.893 172.043,108.56 171.5,108.5C 163.655,103.077 155.989,97.4106 148.5,91.5C 148.5,90.8333 148.5,90.1667 148.5,89.5 Z"/></g>
<g><path style="opacity:1" fill="#df98a6" d="M 171.5,108.5 C 172.043,108.56 172.376,108.893 172.5,109.5C 159.183,110.499 145.85,110.833 132.5,110.5C 129.941,110.802 127.607,110.468 125.5,109.5C 141.009,109.83 156.342,109.496 171.5,108.5 Z"/></g>
<g><path style="opacity:1" fill="#e4b1bd" d="M 125.5,112.5 C 127.607,111.532 129.941,111.198 132.5,111.5C 146.183,111.167 159.85,111.501 173.5,112.5C 173.376,113.107 173.043,113.44 172.5,113.5C 157.009,112.504 141.342,112.17 125.5,112.5 Z"/></g>
<g><path style="opacity:1" fill="#fdfcfe" d="M 125.5,112.5 C 141.342,112.17 157.009,112.504 172.5,113.5C 171.167,114.5 169.833,115.5 168.5,116.5C 164.167,119.833 159.833,123.167 155.5,126.5C 148.855,131.15 142.522,136.15 136.5,141.5C 133.185,143.808 129.851,146.141 126.5,148.5C 123.952,144.788 120.618,141.955 116.5,140C 113.633,139.199 110.966,139.366 108.5,140.5C 104.227,141.775 101.227,144.442 99.5,148.5C 92.1952,139.418 84.5285,130.584 76.5,122C 81.8221,119.728 87.1554,117.561 92.5,115.5C 95.1123,114.629 97.779,113.963 100.5,113.5C 102.516,121.853 107.85,125.186 116.5,123.5C 122.057,121.942 125.057,118.275 125.5,112.5 Z"/></g>
<g><path style="opacity:1" fill="#f5f5fb" d="M 63.5,124.5 C 59.5823,126.198 55.5823,127.364 51.5,128C 55.0374,124.631 58.3707,121.131 61.5,117.5C 62.4787,115.855 63.812,114.521 65.5,113.5C 68.3557,115.522 70.689,118.022 72.5,121C 69.5107,122.273 66.5107,123.439 63.5,124.5 Z"/></g>
<g><path style="opacity:1" fill="#6598bb" d="M 37.5,118.5 C 38.791,118.263 39.791,118.596 40.5,119.5C 40.0618,119.435 39.7284,119.601 39.5,120C 43.3987,124.328 47.3987,128.495 51.5,132.5C 57.1294,133.929 62.4628,135.929 67.5,138.5C 66.5084,138.328 65.8417,138.662 65.5,139.5C 60.9851,137.939 56.4851,136.272 52,134.5C 50.2722,137.329 48.1056,139.662 45.5,141.5C 45.5,139.5 44.5,138.5 42.5,138.5C 47.2744,132.455 46.2744,127.789 39.5,124.5C 37.7014,123.73 36.3681,122.397 35.5,120.5C 36.2427,119.818 36.9094,119.151 37.5,118.5 Z"/></g>
<g><path style="opacity:1" fill="#6d91c3" d="M 59.5,117.5 C 60.1667,117.5 60.8333,117.5 61.5,117.5C 58.3707,121.131 55.0374,124.631 51.5,128C 55.5823,127.364 59.5823,126.198 63.5,124.5C 63.8417,125.338 64.5084,125.672 65.5,125.5C 61.4784,127.251 57.3118,128.918 53,130.5C 51.9701,130.836 51.4701,131.503 51.5,132.5C 47.3987,128.495 43.3987,124.328 39.5,120C 39.7284,119.601 40.0618,119.435 40.5,119.5C 44.9115,120.07 48.0782,122.403 50,126.5C 53.0359,123.296 56.2026,120.296 59.5,117.5 Z"/></g>
<g><path style="opacity:1" fill="#d56579" d="M 168.5,116.5 C 168.842,117.338 169.508,117.672 170.5,117.5C 165.804,121.521 160.804,125.188 155.5,128.5C 155.5,127.833 155.5,127.167 155.5,126.5C 159.833,123.167 164.167,119.833 168.5,116.5 Z"/></g>
<g><path style="opacity:1" fill="#fafafd" d="M 73.5,122.5 C 82.0039,130.839 90.0039,139.672 97.5,149C 94.5623,148.304 91.5623,147.47 88.5,146.5C 81.7315,143.462 74.7315,140.796 67.5,138.5C 62.4628,135.929 57.1294,133.929 51.5,132.5C 51.4701,131.503 51.9701,130.836 53,130.5C 57.3118,128.918 61.4784,127.251 65.5,125.5C 68.3267,124.892 70.9933,123.892 73.5,122.5 Z"/></g>
<g><path style="opacity:1" fill="#fafbfc" d="M 39.5,124.5 C 46.2744,127.789 47.2744,132.455 42.5,138.5C 32.4628,140.294 28.9628,136.294 32,126.5C 34.2276,124.887 36.7276,124.22 39.5,124.5 Z"/></g>
<g><path style="opacity:1" fill="#52a6a9" d="M 37.5,118.5 C 36.9094,119.151 36.2427,119.818 35.5,120.5C 36.3681,122.397 37.7014,123.73 39.5,124.5C 36.7276,124.22 34.2276,124.887 32,126.5C 28.9628,136.294 32.4628,140.294 42.5,138.5C 44.5,138.5 45.5,139.5 45.5,141.5C 44.9423,142.79 43.9423,143.623 42.5,144C 31.71,146.202 25.71,141.869 24.5,131C 25.4091,123.257 29.7424,119.091 37.5,118.5 Z"/></g>
<g><path style="opacity:1" fill="#9f6ecd" d="M 108.5,140.5 C 110.966,139.366 113.633,139.199 116.5,140C 120.618,141.955 123.952,144.788 126.5,148.5C 129.851,146.141 133.185,143.808 136.5,141.5C 137.167,141.5 137.833,141.5 138.5,141.5C 134.81,145.349 130.643,148.683 126,151.5C 125.902,154.522 125.068,157.189 123.5,159.5C 122.047,156.606 121.047,153.606 120.5,150.5C 118.833,148.167 116.833,146.167 114.5,144.5C 112.231,143.563 110.231,142.23 108.5,140.5 Z"/></g>
<g><path style="opacity:1" fill="#906edf" d="M 108.5,140.5 C 110.231,142.23 112.231,143.563 114.5,144.5C 109.931,144.277 106.931,146.277 105.5,150.5C 104.71,151.609 104.21,152.942 104,154.5C 103.196,151.854 101.696,149.854 99.5,148.5C 101.227,144.442 104.227,141.775 108.5,140.5 Z"/></g>
<g><path style="opacity:1" fill="#be6da3" d="M 155.5,126.5 C 155.5,127.167 155.5,127.833 155.5,128.5C 150.123,133.21 144.457,137.543 138.5,141.5C 137.833,141.5 137.167,141.5 136.5,141.5C 142.522,136.15 148.855,131.15 155.5,126.5 Z"/></g>
<g><path style="opacity:1" fill="#7d88d1" d="M 65.5,139.5 C 65.8417,138.662 66.5084,138.328 67.5,138.5C 74.7315,140.796 81.7315,143.462 88.5,146.5C 87.209,146.263 86.209,146.596 85.5,147.5C 78.7087,145.017 72.042,142.35 65.5,139.5 Z"/></g>
<g><path style="opacity:1" fill="#f9f8fd" d="M 114.5,144.5 C 116.833,146.167 118.833,148.167 120.5,150.5C 120.078,158.371 116.078,161.371 108.5,159.5C 105.924,157.112 104.924,154.112 105.5,150.5C 106.931,146.277 109.931,144.277 114.5,144.5 Z"/></g>
<g><path style="opacity:1" fill="#897ade" d="M 90.5,114.5 C 91.4916,114.328 92.1583,114.662 92.5,115.5C 87.1554,117.561 81.8221,119.728 76.5,122C 84.5285,130.584 92.1952,139.418 99.5,148.5C 101.696,149.854 103.196,151.854 104,154.5C 104.21,152.942 104.71,151.609 105.5,150.5C 104.924,154.112 105.924,157.112 108.5,159.5C 108.062,159.435 107.728,159.601 107.5,160C 108.833,161.333 110.167,162.667 111.5,164C 110.944,164.383 110.611,164.883 110.5,165.5C 103.768,163.765 99.7681,159.432 98.5,152.5C 94.2213,150.63 89.888,148.964 85.5,147.5C 86.209,146.596 87.209,146.263 88.5,146.5C 91.5623,147.47 94.5623,148.304 97.5,149C 90.0039,139.672 82.0039,130.839 73.5,122.5C 74.0998,121.1 75.0998,120.1 76.5,119.5C 81.1618,117.835 85.8285,116.168 90.5,114.5 Z"/></g>
<g><path style="opacity:1" fill="#8f6fe2" d="M 120.5,150.5 C 121.047,153.606 122.047,156.606 123.5,159.5C 120.503,164.175 116.17,166.175 110.5,165.5C 110.611,164.883 110.944,164.383 111.5,164C 110.167,162.667 108.833,161.333 107.5,160C 107.728,159.601 108.062,159.435 108.5,159.5C 116.078,161.371 120.078,158.371 120.5,150.5 Z"/></g>
</svg>
